<?xml version="1.0" encoding="UTF-8" standalone="no"?>
<!-- Created with Inkscape (http://www.inkscape.org/) -->

<svg
   xmlns:dc="http://purl.org/dc/elements/1.1/"
   xmlns:cc="http://creativecommons.org/ns#"
   xmlns:rdf="http://www.w3.org/1999/02/22-rdf-syntax-ns#"
   xmlns:svg="http://www.w3.org/2000/svg"
   xmlns="http://www.w3.org/2000/svg"
   xmlns:sodipodi="http://sodipodi.sourceforge.net/DTD/sodipodi-0.dtd"
   xmlns:inkscape="http://www.inkscape.org/namespaces/inkscape"
   width="297mm"
   height="210mm"
   viewBox="0 0 297 210"
   version="1.1"
   id="svg8"
   inkscape:version="0.92.4 (5da689c313, 2019-01-14)"
   sodipodi:docname="falls.svg">
  <defs
     id="defs2" />
  <sodipodi:namedview
     id="base"
     pagecolor="#ffffff"
     bordercolor="#666666"
     borderopacity="1.0"
     inkscape:pageopacity="0.0"
     inkscape:pageshadow="2"
     inkscape:zoom="0.75179917"
     inkscape:cx="56.362682"
     inkscape:cy="586.68054"
     inkscape:document-units="mm"
     inkscape:current-layer="layer1"
     showgrid="false"
     inkscape:window-width="1366"
     inkscape:window-height="745"
     inkscape:window-x="-8"
     inkscape:window-y="-8"
     inkscape:window-maximized="1" />
  <metadata
     id="metadata5">
    <rdf:RDF>
      <cc:Work
         rdf:about="">
        <dc:format>image/svg+xml</dc:format>
        <dc:type
           rdf:resource="http://purl.org/dc/dcmitype/StillImage" />
        <dc:title></dc:title>
      </cc:Work>
    </rdf:RDF>
  </metadata>
  <g
     inkscape:label="Layer 1"
     inkscape:groupmode="layer"
     id="layer1"
     transform="translate(0,-87)">
    <g
       id="g818"
       transform="matrix(1.1155747,0,0,1.1271209,-30.454707,-25.92586)"
       style="fill:#ff5555;stroke:#ff5555">
      <path
         sodipodi:nodetypes="csssssssscscssssc"
         inkscape:connector-curvature="0"
         id="path819"
         d="m 27.758757,119.6042 c -4.109386,96.49338 -1.283412,121.97976 11.720464,109.96886 9.43275,-8.71246 23.335266,-136.042687 34.688706,-54.01761 1.595856,11.52955 6.286773,67.13429 18.650416,72.433 27.554537,11.80908 22.671837,-102.24257 29.493677,-95.42073 14.63455,14.63455 2.98218,110.16865 30.36114,103.22788 21.78341,-5.52225 -0.28348,-136.22297 22.98772,-135.32394 39.01601,1.5073 -8.25586,101.48969 26.45757,101.92668 18.13772,0.22833 -2.41342,-62.7191 22.12026,-63.32466 12.84226,-0.31698 -1.06226,69.97984 13.87938,62.89093 14.9485,16.14431 4.55671,-103.54025 23.42145,-29.49368 4.10983,16.13161 1.00264,53.13599 15.6143,61.58975 20.43063,-3.55216 14.1224,-61.25434 9.9758,-103.66161 -1.53883,-15.73757 22.64694,-50.431537 -22.55399,-46.40917 -21.88776,1.94776 -21.88837,-1.81558 -43.80678,0.43373 -53.10465,5.44969 -113.70112,-2.15576 -161.781511,-0.43373 -25.923609,0.92847 -34.968635,12.58799 -31.228602,15.6143 z"
         style="fill:#ff5555;stroke:#ff5555;stroke-width:0.26458332px;stroke-linecap:butt;stroke-linejoin:miter;stroke-opacity:1" />
      <path
         transform="matrix(0.26458333,0,0,0.26458333,0,87)"
         inkscape:connector-curvature="0"
         id="path821"
         d="m 553.52948,634.76673 c -12.83831,-5.84703 -22.74143,-20.38031 -30.86841,-45.30088 -10.90228,-33.43074 -16.09849,-69.95851 -24.83535,-174.5851 -2.29632,-27.4992 -5.65414,-61.80149 -7.46181,-76.2273 -6.43252,-51.33357 -16.72257,-84.63188 -28.32123,-91.64679 -8.13406,-4.91952 -11.00337,9.889 -18.33732,94.63885 -13.3482,154.24972 -26.32909,218.24772 -51.18494,252.35073 -10.89775,14.95202 -27.15477,19.97208 -41.30318,12.7541 C 323.48659,592.60321 303.90089,521.39722 285.59156,368.16079 269.15271,230.57897 250.8277,197.29522 226.0235,259.96721 c -9.81724,24.80491 -16.81616,50.8969 -35.61776,132.78303 -20.98576,91.39878 -29.13965,121.5711 -37.12341,137.37012 -4.49589,8.89687 -16.24185,17.54342 -23.83198,17.54342 -12.09018,0 -19.76346,-18.85711 -25.5145,-62.70202 -2.50032,-19.06193 -2.8206,-36.17442 -2.61562,-139.75112 0.14422,-72.87283 1.12491,-137.78534 2.5633,-169.66721 1.48648,-32.94757 1.77108,-52.92911 0.78631,-55.20537 -2.58652,-5.97867 0.31003,-12.42286 9.5187,-21.177035 15.53816,-14.771284 43.57214,-25.816234 78.18588,-30.80401 37.93587,-5.46649 130.82534,-4.931244 282.46882,1.627637 77.14085,3.336494 243.12204,4.787381 285.23763,2.49334 18.03226,-0.982219 52.13838,-3.402936 75.79137,-5.379372 40.33327,-3.370232 45.2032,-3.458552 78.37558,-1.421402 25.34956,1.556743 43.58552,1.753046 64.36847,0.692903 58.81351,-3.000088 81.44131,-1.305652 98.25631,7.357721 20.6469,10.637645 29.652,33.979938 25.0496,64.931418 -1.0725,7.2129 -4.7958,25.28615 -8.2738,40.16277 -11.8476,50.67508 -11.566,42.71317 -4.2029,118.84901 7.7436,80.07046 9.7261,114.32665 9.8191,169.6672 0.096,56.87988 -1.233,73.83253 -8.0412,102.60604 -6.9536,29.38749 -17.3096,47.44821 -31.6969,55.27876 -4.452,2.42308 -9.3021,4.40557 -10.7781,4.40557 -5.0448,0 -16.9926,-13.10199 -23.6152,-25.89654 -14.3036,-27.6339 -19.3047,-54.31555 -27.40874,-146.22961 -3.02916,-34.35603 -4.5478,-44.13709 -10.68995,-68.85046 -9.57897,-38.5416 -21.67126,-73.00439 -27.96726,-79.70618 -4.58017,-4.87538 -7.26021,-4.92434 -10.3627,-0.18937 -5.48259,8.3675 -7.74661,24.69284 -15.68461,113.09862 -4.94069,55.02457 -10.19836,80.96503 -18.13729,89.48649 -3.96256,4.2533 -5.31201,4.35453 -10.72951,0.80484 -2.29278,-1.5023 -7.21243,-2.79324 -10.93252,-2.86877 -5.74227,-0.11655 -7.31362,-0.95102 -10.40428,-5.52495 -7.69276,-11.38469 -10.36411,-36.80751 -10.45803,-99.52736 -0.14065,-93.9713 -4.53113,-124.65163 -18.8125,-131.46194 -4.36927,-2.08356 -6.72713,-2.17293 -14.53919,-0.55116 -31.81833,6.60546 -43.63007,42.45703 -43.70683,132.66098 -0.0543,63.86531 -4.64739,89.49616 -18.06021,100.78231 -9.55551,8.04044 -31.69139,4.68496 -43.26887,-6.55894 -22.16708,-21.52839 -24.96587,-58.25984 -13.22442,-173.55749 5.88107,-57.75055 7.63148,-93.91924 5.69426,-117.66118 -4.22072,-51.72766 -20.49567,-76.23454 -54.23561,-81.6682 -22.27576,-3.58741 -33.70437,7.76899 -42.52467,42.25603 -8.76543,34.2725 -11.18882,75.41987 -13.06491,221.83298 -0.84911,66.2645 -2.29577,129.3331 -3.21481,140.15246 -5.53225,65.1276 -16.64275,98.6782 -34.97851,105.62544 -6.89313,2.61173 -17.50833,2.05315 -24.89256,-1.30988 z"
         style="opacity:1;fill:#ff5555;fill-opacity:0.98492462;fill-rule:nonzero;stroke:#ff5555;stroke-width:6.19576693;stroke-linecap:round;stroke-linejoin:miter;stroke-miterlimit:4;stroke-dasharray:none;stroke-dashoffset:0;stroke-opacity:1;paint-order:stroke fill markers" />
      <rect
         ry="0"
         y="100.42545"
         x="27.325825"
         height="19.516279"
         width="265.00778"
         id="rect823"
         style="opacity:1;fill:#ff5555;fill-opacity:0.98492462;fill-rule:nonzero;stroke:#ff5555;stroke-width:1.00159669;stroke-linecap:round;stroke-linejoin:miter;stroke-miterlimit:4;stroke-dasharray:none;stroke-dashoffset:0;stroke-opacity:1;paint-order:stroke fill markers" />
    </g>
  </g>
</svg>
