<?xml version="1.0" encoding="UTF-8" standalone="no"?>
<!-- Created with Inkscape (http://www.inkscape.org/) -->

<svg
   xmlns:dc="http://purl.org/dc/elements/1.1/"
   xmlns:cc="http://creativecommons.org/ns#"
   xmlns:rdf="http://www.w3.org/1999/02/22-rdf-syntax-ns#"
   xmlns:svg="http://www.w3.org/2000/svg"
   xmlns="http://www.w3.org/2000/svg"
   xmlns:sodipodi="http://sodipodi.sourceforge.net/DTD/sodipodi-0.dtd"
   xmlns:inkscape="http://www.inkscape.org/namespaces/inkscape"
   width="290mm"
   height="290mm"
   viewBox="0 0 290 290"
   version="1.1"
   id="svg8"
   inkscape:version="0.92.4 (5da689c313, 2019-01-14)"
   sodipodi:docname="mountgrad.svg">
  <defs
     id="defs2" />
  <sodipodi:namedview
     id="base"
     pagecolor="#ffffff"
     bordercolor="#666666"
     borderopacity="1.0"
     inkscape:pageopacity="0.0"
     inkscape:pageshadow="2"
     inkscape:zoom="0.21567383"
     inkscape:cx="418.93926"
     inkscape:cy="431.80827"
     inkscape:document-units="mm"
     inkscape:current-layer="layer1"
     showgrid="false"
     inkscape:window-width="1366"
     inkscape:window-height="745"
     inkscape:window-x="-8"
     inkscape:window-y="-8"
     inkscape:window-maximized="1"
     width="290mm" />
  <metadata
     id="metadata5">
    <rdf:RDF>
      <cc:Work
         rdf:about="">
        <dc:format>image/svg+xml</dc:format>
        <dc:type
           rdf:resource="http://purl.org/dc/dcmitype/StillImage" />
        <dc:title></dc:title>
      </cc:Work>
    </rdf:RDF>
  </metadata>
  <g
     inkscape:label="Layer 1"
     inkscape:groupmode="layer"
     id="layer1"
     transform="translate(0,-7)">
    <path
       style="opacity:1;fill:#ff0098;fill-opacity:1;fill-rule:nonzero;stroke:#000080;stroke-width:0.09812399;stroke-linecap:round;stroke-linejoin:miter;stroke-miterlimit:4;stroke-dasharray:none;stroke-dashoffset:0;stroke-opacity:1;paint-order:stroke fill markers"
       d="M 190.41427,8.9171911 C 178.80783,13.692854 162.42438,23.556868 141.40285,38.425608 124.77218,50.188654 102.62224,65.416388 96.213961,69.492292 76.982292,81.72435 62.277453,88.084292 54.471306,87.546252 49.03076,87.171268 41.926184,83.71477 36.319504,78.715103 31.563636,74.474125 20.47774,60.292242 12.590328,48.358983 8.2715146,41.824827 2.6925072,32.791472 -4.7033222,20.357685 -8.0595578,14.715243 -11.215433,9.4497346 -11.716402,8.6565575 L -12.627269,7.2144013 91.226672,7.1057578 195.08067,6.9971143 Z"
       id="path826-2"
       inkscape:connector-curvature="0" />
    <g
       id="g860"
       transform="matrix(1.1270615,0,0,0.86873392,10.283525,-102.90543)">
      <path
         inkscape:connector-curvature="0"
         id="path826"
         d="M -0.06742513,294.43497 C 17.201365,284.88955 41.586473,265.15784 72.881158,235.4071 97.639164,211.87053 130.6124,181.40278 140.15109,173.2487 c 28.62625,-24.47096 50.50589,-37.18453 62.10975,-36.09003 8.08739,0.76283 18.63999,7.70404 26.96131,17.7344 7.05856,8.50826 23.49987,36.94996 35.19235,60.87902 6.40232,13.10255 14.67111,31.21578 25.63133,56.1468 4.97377,11.31367 9.65074,21.8716 10.39329,23.46207 l 1.35011,2.89177 H 147.38941 -7.0103788 Z"
         style="opacity:1;fill:#ff0098;fill-opacity:1;fill-rule:nonzero;stroke:#ff0098;stroke-width:0.16936362;stroke-linecap:round;stroke-linejoin:miter;stroke-miterlimit:4;stroke-dasharray:none;stroke-dashoffset:0;stroke-opacity:1;paint-order:stroke fill markers" />
      <path
         inkscape:connector-curvature="0"
         id="path826-7"
         d="m 294.66174,301.41575 c -17.25827,9.56442 -41.62164,29.32297 -72.88356,59.10815 -24.73207,23.56381 -57.67174,54.06785 -67.20145,62.23243 -28.59929,24.50246 -50.46491,37.24011 -62.069949,36.15839 C 84.418559,458.1608 73.858328,451.2312 65.525977,441.21002 58.458059,432.70954 41.985443,404.28595 30.266614,380.36978 23.849881,367.27429 15.561163,349.17017 4.5734824,324.25124 -0.41274125,312.94305 -5.1013232,302.39027 -5.8456237,300.80062 l -1.3532932,-2.89028 154.3996769,-0.17 154.39971,-0.17 z"
         style="opacity:1;fill:#ff0098;fill-opacity:1;fill-rule:nonzero;stroke:#ff0098;stroke-width:0.16936362;stroke-linecap:round;stroke-linejoin:miter;stroke-miterlimit:4;stroke-dasharray:none;stroke-dashoffset:0;stroke-opacity:1;paint-order:stroke fill markers" />
    </g>
  </g>
</svg>
