<?xml version="1.0" encoding="UTF-8" standalone="no"?>
<!-- Created with Inkscape (http://www.inkscape.org/) -->

<svg
   xmlns:dc="http://purl.org/dc/elements/1.1/"
   xmlns:cc="http://creativecommons.org/ns#"
   xmlns:rdf="http://www.w3.org/1999/02/22-rdf-syntax-ns#"
   xmlns:svg="http://www.w3.org/2000/svg"
   xmlns="http://www.w3.org/2000/svg"
   xmlns:sodipodi="http://sodipodi.sourceforge.net/DTD/sodipodi-0.dtd"
   xmlns:inkscape="http://www.inkscape.org/namespaces/inkscape"
   width="297mm"
   height="210mm"
   viewBox="0 0 297 210"
   version="1.1"
   id="svg8"
   inkscape:version="0.92.4 (5da689c313, 2019-01-14)"
   sodipodi:docname="backMountGreen.svg">
  <defs
     id="defs2">
    <filter
       style="color-interpolation-filters:sRGB"
       inkscape:label="Drop Shadow"
       id="filter1175">
      <feFlood
         flood-opacity="0.498039"
         flood-color="rgb(0,0,0)"
         result="flood"
         id="feFlood1165" />
      <feComposite
         in="flood"
         in2="SourceGraphic"
         operator="in"
         result="composite1"
         id="feComposite1167" />
      <feGaussianBlur
         in="composite1"
         stdDeviation="6.2"
         result="blur"
         id="feGaussianBlur1169" />
      <feOffset
         dx="4.2"
         dy="5.75916"
         result="offset"
         id="feOffset1171" />
      <feComposite
         in="SourceGraphic"
         in2="offset"
         operator="over"
         result="composite2"
         id="feComposite1173" />
    </filter>
    <filter
       style="color-interpolation-filters:sRGB"
       inkscape:label="Drop Shadow"
       id="filter7217">
      <feFlood
         flood-opacity="0.431373"
         flood-color="rgb(18,0,0)"
         result="flood"
         id="feFlood7207" />
      <feComposite
         in="flood"
         in2="SourceGraphic"
         operator="in"
         result="composite1"
         id="feComposite7209" />
      <feGaussianBlur
         in="composite1"
         stdDeviation="3"
         result="blur"
         id="feGaussianBlur7211" />
      <feOffset
         dx="6"
         dy="6"
         result="offset"
         id="feOffset7213" />
      <feComposite
         in="SourceGraphic"
         in2="offset"
         operator="over"
         result="composite2"
         id="feComposite7215" />
    </filter>
  </defs>
  <sodipodi:namedview
     id="base"
     pagecolor="#ffffff"
     bordercolor="#666666"
     borderopacity="1.0"
     inkscape:pageopacity="0.0"
     inkscape:pageshadow="2"
     inkscape:zoom="0.18794979"
     inkscape:cx="1357.7652"
     inkscape:cy="509.08173"
     inkscape:document-units="mm"
     inkscape:current-layer="layer1"
     showgrid="false"
     inkscape:window-width="1366"
     inkscape:window-height="745"
     inkscape:window-x="-8"
     inkscape:window-y="-8"
     inkscape:window-maximized="1" />
  <metadata
     id="metadata5">
    <rdf:RDF>
      <cc:Work
         rdf:about="">
        <dc:format>image/svg+xml</dc:format>
        <dc:type
           rdf:resource="http://purl.org/dc/dcmitype/StillImage" />
        <dc:title></dc:title>
      </cc:Work>
    </rdf:RDF>
  </metadata>
  <g
     inkscape:label="Layer 1"
     inkscape:groupmode="layer"
     id="layer1"
     transform="translate(0,-87)">
    <g
       id="g843"
       transform="matrix(1,0,0,1.0952353,-5.2916669,-41.680396)">
      <path
         inkscape:connector-curvature="0"
         id="path828"
         d="m 97.830985,285.23398 c -4.904401,-1.26473 -9.381402,-4.20407 -14.143984,-9.28612 -3.972433,-4.2389 -6.449777,-7.83634 -15.672096,-22.75805 l -3.941773,-6.37779 3.371223,-11.10376 c 9.497962,-31.28332 18.387951,-46.37354 27.319694,-46.37354 2.196447,0 6.068291,1.8501 9.289851,4.43902 3.80374,3.05677 10.27294,11.66142 21.94171,29.18454 l 11.15752,16.7554 -3.79866,6.55333 c -5.67747,9.79455 -15.89867,24.99962 -20.07397,29.86206 -3.42526,3.98895 -7.94444,7.88555 -10.84911,9.35448 -0.86581,0.43785 -2.21941,0.36442 -4.600405,-0.24957 z"
         style="opacity:1;fill:#008000;fill-opacity:1;fill-rule:nonzero;stroke:#00d400;stroke-width:0.16228208;stroke-linecap:round;stroke-linejoin:miter;stroke-miterlimit:4;stroke-dasharray:none;stroke-dashoffset:0;stroke-opacity:1;paint-order:stroke fill markers" />
      <path
         inkscape:connector-curvature="0"
         id="path830"
         d="m 228.78451,286.36154 c -8.0588,-2.75271 -15.30918,-12.09491 -25.91516,-33.39195 l -5.80074,-11.64803 2.67248,-6.19217 c 4.96924,-11.51373 11.60753,-21.5235 18.15448,-27.37483 16.13472,-14.4204 35.03596,-8.93516 50.81968,14.74814 3.78748,5.68306 10.13931,18.14164 11.0023,21.58006 0.4078,1.62481 0.33724,1.68362 -2.02036,1.68362 -7.63558,0 -13.44113,4.65857 -29.05668,23.3161 -4.93788,5.8998 -10.73439,12.43722 -12.88114,14.5276 l -3.90318,3.80068 z"
         style="opacity:1;fill:#008000;fill-opacity:1;fill-rule:nonzero;stroke:#00d400;stroke-width:0.16228208;stroke-linecap:round;stroke-linejoin:miter;stroke-miterlimit:4;stroke-dasharray:none;stroke-dashoffset:0;stroke-opacity:1;paint-order:stroke fill markers" />
      <path
         inkscape:connector-curvature="0"
         id="path826"
         d="m -9.5118544,298.36009 c 0,-0.7507 8.83110723,-15.99864 15.1013567,-26.07425 15.9722587,-25.6657 29.9982437,-40.4482 39.8226087,-41.97053 7.63741,-1.18345 13.435973,3.92155 23.60386,20.7806 7.408283,12.28344 10.379184,16.4311 15.345299,21.42349 4.97464,5.00095 10.122056,8.01151 15.005423,8.7762 2.182957,0.34183 2.887937,0.096 6.345727,-2.21306 7.52802,-5.02701 14.51586,-14.49119 30.77043,-41.67477 12.92131,-21.60917 16.93301,-27.7613 22.5903,-34.64333 6.53339,-7.9478 10.82122,-8.69094 16.59243,-2.87569 5.3867,5.42781 8.84378,11.52027 20.88201,36.80066 15.58371,32.72595 23.59244,43.61041 33.69355,45.792 1.93723,0.41839 2.31224,0.20438 6.04876,-3.45212 2.19092,-2.144 7.56165,-8.17655 11.93496,-13.40568 11.77547,-14.07984 17.60248,-19.81412 22.75276,-22.3907 4.47569,-2.2391 8.71405,-2.8283 10.13359,-1.40874 0.40484,0.40483 0.73607,0.53723 0.73607,0.29422 0,-0.24301 1.14239,0.14097 2.53863,0.85328 6.7963,3.46721 14.21042,14.17293 21.42209,30.93267 3.03289,7.04841 9.16221,23.34258 9.16221,24.35683 0,0.26696 -73.00846,0.48537 -162.24103,0.48537 -89.232568,0 -162.2410344,-0.1739 -162.2410344,-0.38645 z"
         style="opacity:1;fill:#00d400;fill-opacity:1;fill-rule:nonzero;stroke:#00d400;stroke-width:0.16228208;stroke-linecap:round;stroke-linejoin:miter;stroke-miterlimit:4;stroke-dasharray:none;stroke-dashoffset:0;stroke-opacity:1;paint-order:stroke fill markers" />
    </g>
    <g
       id="g1518"
       transform="matrix(0.24033513,0,0,0.24033513,192.12113,105.3415)">
      <path
         sodipodi:nodetypes="scscccs"
         inkscape:connector-curvature="0"
         id="path6797"
         d="M 191.20272,102.38703 C 164.39679,48.03693 143.11683,3.4824799 142.85967,2.9575999 c 0.81276,-0.004 44.47501,-0.23156 98.2643,-0.0859 l 97.79882,0.26481 -48.78025,98.8017101 c -26.82926,54.34095 -49.10016,98.90644 -49.49107,99.03445 -0.3909,0.12796 -22.64283,-44.23553 -49.44875,-98.58563 z"
         style="opacity:1;fill:#40545f;fill-opacity:1;fill-rule:nonzero;stroke:#3e505c;stroke-width:3.71839166;stroke-linecap:round;stroke-linejoin:miter;stroke-miterlimit:4;stroke-dasharray:none;stroke-dashoffset:0;stroke-opacity:1;paint-order:stroke fill markers;filter:url(#filter1175)" />
      <g
         transform="matrix(0.99539227,0,0,1.1021972,137.42406,-98.591186)"
         style="fill:#8fa4af;fill-opacity:1;stroke:#8fa4af;stroke-opacity:1;filter:url(#filter7217)"
         id="g6905">
        <g
           id="g6855"
           style="fill:#8fa4af;fill-opacity:1;stroke:#8fa4af;stroke-opacity:1"
           transform="translate(15.875,5.2916667)">
          <path
             sodipodi:nodetypes="ccccc"
             inkscape:connector-curvature="0"
             d="m 54.574989,184.07327 19.21843,-10.92339 19.086027,34.70416 -15.435892,17.52194 z"
             style="opacity:1;fill:#8fa4af;fill-opacity:1;fill-rule:nonzero;stroke:#8fa4af;stroke-width:0.45612431;stroke-linecap:round;stroke-linejoin:miter;stroke-miterlimit:4;stroke-dasharray:none;stroke-dashoffset:0;stroke-opacity:1;paint-order:stroke fill markers"
             id="rect5862" />
          <ellipse
             transform="matrix(0.72064422,-0.69330507,0.44347896,0.89628478,0,0)"
             ry="4.6788073"
             rx="11.451092"
             cy="226.06635"
             cx="-20.516987"
             id="path5864"
             style="opacity:1;fill:#8fa4af;fill-opacity:1;fill-rule:nonzero;stroke:#8fa4af;stroke-width:0.38578004;stroke-linecap:round;stroke-linejoin:miter;stroke-miterlimit:4;stroke-dasharray:none;stroke-dashoffset:0;stroke-opacity:1;paint-order:stroke fill markers" />
          <g
             id="g6883"
             style="fill:#8fa4af;fill-opacity:1;stroke:#8fa4af;stroke-opacity:1">
            <path
               inkscape:connector-curvature="0"
               id="path5848"
               style="opacity:1;fill:#8fa4af;fill-opacity:1;fill-rule:nonzero;stroke:#8fa4af;stroke-width:0.26458332;stroke-linecap:round;stroke-linejoin:miter;stroke-miterlimit:4;stroke-dasharray:none;stroke-dashoffset:0;stroke-opacity:1;paint-order:stroke fill markers"
               d="m 87.662865,97.375077 c -14.716307,0 -29.433207,0.009 -40.598039,0.02739 l -40.5990709,0.06718 9.0165039,16.338023 9.016504,16.33802 H 87.652531 150.8063 l 7.84241,-14.19965 c 0.0311,-0.0744 0.0608,-0.14945 0.0946,-0.22273 0.0457,-0.0984 0.0918,-0.19661 0.14263,-0.29249 0.0362,-0.0679 0.0734,-0.13571 0.11058,-0.20309 0.0358,-0.0643 0.0715,-0.12857 0.11266,-0.18965 0.0178,-0.0267 0.0357,-0.0535 0.0522,-0.0811 0.007,-0.0116 0.0145,-0.0229 0.0207,-0.0351 0.01,-0.0202 0.0192,-0.0408 0.0289,-0.061 0.005,-0.0107 0.005,-0.0106 0.004,-0.007 0.003,-0.007 -0.004,0.0154 0.002,-0.004 0.002,-0.007 0.003,-0.0105 0.006,-0.0212 0.003,-0.0124 0.007,-0.0249 0.0109,-0.0372 0.0855,-0.28693 0.2212,-0.47273 0.36897,-0.57257 l 0.22686,-0.41135 9.02271,-16.338016 -40.59391,-0.06718 c -11.16335,-0.01842 -25.87914,-0.02739 -40.595451,-0.02739 z" />
            <path
               style="opacity:1;fill:#8fa4af;fill-opacity:1;fill-rule:nonzero;stroke:#8fa4af;stroke-width:0.26458332;stroke-linecap:round;stroke-linejoin:miter;stroke-miterlimit:4;stroke-dasharray:none;stroke-dashoffset:0;stroke-opacity:1;paint-order:stroke fill markers"
               d="m 54.433248,184.07327 c -0.400023,-0.63888 -4.390469,-7.85389 -7.698444,-13.91933 -0.967962,-1.77484 -1.759931,-3.35242 -1.759931,-3.50573 0,-0.19388 10.8156,-0.27998 35.520312,-0.2828 19.536175,-0.002 35.657105,-0.0915 35.824295,-0.19844 0.16719,-0.10691 0.98097,-1.47392 1.80839,-3.03778 l 1.5044,-2.8434 -39.21293,-0.067 -39.21293,-0.067 -6.13931,-11.1125 -6.139306,-11.11251 58.602464,-0.0667 c 32.231352,-0.0367 58.650052,-0.0192 58.708212,0.039 0.0582,0.0582 -5.64665,10.53396 -12.67736,23.27953 l -12.78311,23.17377 -17.33021,0.005 c -9.531615,0.003 -24.369276,0.0834 -32.972582,0.17956 l -15.64237,0.17477 z"
               id="path5856"
               inkscape:connector-curvature="0" />
            <path
               inkscape:connector-curvature="0"
               id="path5860"
               style="opacity:1;fill:#8fa4af;fill-opacity:1;fill-rule:nonzero;stroke:#8fa4af;stroke-width:0.52916664;stroke-linecap:round;stroke-linejoin:miter;stroke-miterlimit:4;stroke-dasharray:none;stroke-dashoffset:0;stroke-opacity:1;paint-order:stroke fill markers"
               d="m 87.588451,97.457243 c -44.408108,0 -80.6626379,0.20205 -80.5656239,0.449068 0.097014,0.247017 4.0685989,7.509839 8.8263349,16.139579 l 8.650634,15.69052 H 87.656148 150.8125 l 2.45153,-4.49792 c 1.12934,-2.07178 2.26394,-3.82056 2.78949,-4.33617 0.016,-0.0334 0.031,-0.0673 0.0486,-0.0997 0.0247,-0.0466 0.0492,-0.0928 0.0744,-0.13901 0.024,-0.0437 0.0482,-0.0874 0.0729,-0.13074 0.0237,-0.0418 0.0474,-0.0833 0.0713,-0.12506 0.0234,-0.0407 0.0468,-0.0813 0.0703,-0.12196 0.0223,-0.0386 0.0446,-0.0776 0.0667,-0.11627 0.0113,-0.0197 0.0228,-0.0393 0.0341,-0.0589 0.10101,-0.96576 1.51919,-3.76558 2.12907,-4.09949 0.0395,-0.0965 0.0788,-0.1931 0.12247,-0.28784 0.0457,-0.0984 0.0918,-0.19661 0.14263,-0.29249 0.0362,-0.0679 0.0734,-0.13571 0.11058,-0.20309 0.0358,-0.0643 0.0715,-0.12857 0.11266,-0.18965 0.0178,-0.0267 0.0357,-0.0535 0.0522,-0.0811 0.007,-0.0116 0.0145,-0.0229 0.0207,-0.0351 0.01,-0.0202 0.0192,-0.0408 0.0289,-0.061 0.005,-0.0107 0.005,-0.0106 0.004,-0.007 0.003,-0.007 -0.004,0.0154 0.002,-0.004 0.002,-0.007 0.003,-0.0105 0.006,-0.0212 0.003,-0.0124 0.007,-0.0249 0.0109,-0.0372 0.0792,-0.26591 0.20184,-0.44329 0.33693,-0.54777 0.7208,-1.5488 2.31913,-4.61441 4.17339,-7.9716 2.52236,-4.56681 4.58628,-8.418441 4.58628,-8.559172 0,-0.140734 -36.33373,-0.255798 -80.741835,-0.255798 z" />
            <path
               style="opacity:1;fill:#8fa4af;fill-opacity:1;fill-rule:nonzero;stroke:#8fa4af;stroke-width:0.2635549;stroke-linecap:round;stroke-linejoin:miter;stroke-miterlimit:4;stroke-dasharray:none;stroke-dashoffset:0;stroke-opacity:1;paint-order:stroke fill markers"
               d="M 24.499828,129.97082 C 15.323766,113.47406 7.4996696,99.415553 7.1129478,98.72969 L 6.4098176,97.48267 h 9.3757204 9.375719 l 9.035442,16.25156 c 4.969494,8.93836 9.035444,16.37124 9.035444,16.51755 0,0.14628 0.09353,0.30536 0.207854,0.35348 0.114321,0.0481 3.583768,6.17166 7.709884,13.60784 4.126116,7.43617 7.794366,14.02241 8.151662,14.63608 l 0.649631,1.11574 H 50.567377 41.18358 Z"
               id="path6458"
               inkscape:connector-curvature="0" />
          </g>
        </g>
        <path
           style="opacity:1;fill:#8fa4af;fill-opacity:1;fill-rule:nonzero;stroke:#8fa4af;stroke-width:0;stroke-linecap:round;stroke-linejoin:miter;stroke-miterlimit:4;stroke-dasharray:none;stroke-dashoffset:0;stroke-opacity:1;paint-order:stroke fill markers"
           d="m 99.802264,247.42181 c -2.275101,-4.12722 -4.120115,-7.52047 -4.10003,-7.54056 0.02009,-0.0201 3.77174,-0.0275 8.337006,-0.0164 l 8.30051,0.0201 -4.14014,7.50276 c -2.27708,4.12653 -4.1673,7.51072 -4.20047,7.52044 -0.0331,0.01 -1.92177,-3.35914 -4.196876,-7.48635 z"
           id="path6797-2"
           inkscape:connector-curvature="0" />
      </g>
    </g>
  </g>
</svg>
