<?xml version="1.0" encoding="UTF-8" standalone="no"?>
<!-- Created with Inkscape (http://www.inkscape.org/) -->

<svg
   xmlns:dc="http://purl.org/dc/elements/1.1/"
   xmlns:cc="http://creativecommons.org/ns#"
   xmlns:rdf="http://www.w3.org/1999/02/22-rdf-syntax-ns#"
   xmlns:svg="http://www.w3.org/2000/svg"
   xmlns="http://www.w3.org/2000/svg"
   xmlns:sodipodi="http://sodipodi.sourceforge.net/DTD/sodipodi-0.dtd"
   xmlns:inkscape="http://www.inkscape.org/namespaces/inkscape"
   width="210mm"
   height="240mm"
   viewBox="0 0 210 240"
   version="1.1"
   id="svg49"
   inkscape:version="0.92.4 (5da689c313, 2019-01-14)"
   sodipodi:docname="summarizer-preview2.svg">
  <defs
     id="defs43" />
  <sodipodi:namedview
     id="base"
     pagecolor="#ffffff"
     bordercolor="#666666"
     borderopacity="1.0"
     inkscape:pageopacity="0.0"
     inkscape:pageshadow="2"
     inkscape:zoom="0.45152"
     inkscape:cx="424.25729"
     inkscape:cy="518.79772"
     inkscape:document-units="mm"
     inkscape:current-layer="layer1"
     showgrid="false"
     inkscape:window-width="1366"
     inkscape:window-height="745"
     inkscape:window-x="-8"
     inkscape:window-y="-8"
     inkscape:window-maximized="1" />
  <metadata
     id="metadata46">
    <rdf:RDF>
      <cc:Work
         rdf:about="">
        <dc:format>image/svg+xml</dc:format>
        <dc:type
           rdf:resource="http://purl.org/dc/dcmitype/StillImage" />
        <dc:title></dc:title>
      </cc:Work>
    </rdf:RDF>
  </metadata>
  <g
     inkscape:label="Layer 1"
     inkscape:groupmode="layer"
     id="layer1"
     transform="translate(0,-57)">
    <g
       id="g878"
       transform="translate(-237.02074,30.160041)">
      <rect
         ry="12.944644"
         y="40.384327"
         x="248.47247"
         height="215.35181"
         width="110.39174"
         id="rect10-8"
         style="opacity:1;fill:#ffffff;fill-opacity:1;stroke:#000000;stroke-width:8.48704147;stroke-linecap:round;stroke-linejoin:miter;stroke-miterlimit:4;stroke-dasharray:none;stroke-dashoffset:0;stroke-opacity:1;paint-order:stroke fill markers" />
      <rect
         ry="6.2352309"
         y="37.146961"
         x="279.38901"
         height="12.470462"
         width="51.029408"
         id="rect817-5"
         style="opacity:1;fill:#000000;fill-opacity:1;stroke:#000000;stroke-width:0.38187715;stroke-linecap:round;stroke-linejoin:miter;stroke-miterlimit:4;stroke-dasharray:none;stroke-dashoffset:0;stroke-opacity:1;paint-order:stroke fill markers" />
      <rect
         transform="matrix(2.6350173e-4,0.99999997,-0.9999999,4.4161339e-4,0,0)"
         ry="3.809665"
         y="-365.32486"
         x="66.519142"
         height="7.6193299"
         width="50.983517"
         id="rect817-8-3"
         style="opacity:1;fill:#000000;fill-opacity:1;stroke:#000000;stroke-width:0.2983633;stroke-linecap:round;stroke-linejoin:miter;stroke-miterlimit:4;stroke-dasharray:none;stroke-dashoffset:0;stroke-opacity:1;paint-order:stroke fill markers" />
      <rect
         transform="matrix(4.1099317e-4,0.99999992,-0.99999996,2.8313327e-4,0,0)"
         ry="3.8096645"
         y="-249.84503"
         x="96.57843"
         height="7.619329"
         width="32.687286"
         id="rect817-8-4-8"
         style="opacity:1;fill:#000000;fill-opacity:1;stroke:#000000;stroke-width:0.23890209;stroke-linecap:round;stroke-linejoin:miter;stroke-miterlimit:4;stroke-dasharray:none;stroke-dashoffset:0;stroke-opacity:1;paint-order:stroke fill markers" />
    </g>
    <g
       id="g375"
       transform="matrix(0.89847988,0,0,0.89847988,-26.944202,52.372264)">
      <g
         aria-label="Terms &amp; Conditions"
         transform="matrix(0.19037138,0,0,0.19037138,-0.11419901,16.121639)"
         style="font-style:normal;font-variant:normal;font-weight:normal;font-stretch:normal;font-size:8px;line-height:1.25;font-family:'Reem Kufi';-inkscape-font-specification:'Reem Kufi';letter-spacing:0px;word-spacing:0px;fill:#808080;fill-opacity:1;stroke:none"
         id="flowRoot65" />
      <path
         id="rect64-5-5-2-6"
         style="opacity:1;fill:#cccccc;fill-opacity:1;stroke:#cccccc;stroke-width:0;stroke-linecap:round;stroke-linejoin:miter;stroke-miterlimit:4;stroke-dasharray:none;stroke-dashoffset:0;stroke-opacity:0.96482412;paint-order:stroke fill markers"
         d="m 60.380748,145.54292 h 32.963583 c 2.915484,0 5.262606,2.34713 5.262606,5.26261 0,2.91548 -2.347122,5.26261 -5.262606,5.26261 H 60.380748 c -2.915484,0 -5.262607,-2.34713 -5.262607,-5.26261 0,-2.91548 2.347123,-5.26261 5.262607,-5.26261 z m -3.289578,85.30417 h 45.55049 c 1.69519,0 3.0599,1.36472 3.0599,3.0599 0,1.69518 -1.36471,3.0599 -3.0599,3.0599 H 57.09117 c -1.695183,0 -3.059897,-1.36472 -3.059897,-3.0599 0,-1.69518 1.364714,-3.0599 3.059897,-3.0599 z m -0.08671,-10.04149 h 88.346012 c 1.69518,0 3.0599,1.36472 3.0599,3.0599 0,1.69518 -1.36472,3.0599 -3.0599,3.0599 H 57.004458 c -1.695183,0 -3.059897,-1.36472 -3.059897,-3.0599 0,-1.69518 1.364714,-3.0599 3.059897,-3.0599 z m -0.02035,-9.71891 h 96.527503 c 1.69518,0 3.05989,1.36471 3.05989,3.05989 0,1.69519 -1.36471,3.0599 -3.05989,3.0599 H 56.984107 c -1.695183,0 -3.059897,-1.36471 -3.059897,-3.0599 0,-1.69518 1.364714,-3.05989 3.059897,-3.05989 z m -0.441166,-9.50341 h 96.527499 c 1.69518,0 3.0599,1.36472 3.0599,3.0599 0,1.69518 -1.36472,3.0599 -3.0599,3.0599 H 56.542941 c -1.695183,0 -3.059897,-1.36472 -3.059897,-3.0599 0,-1.69518 1.364714,-3.0599 3.059897,-3.0599 z m 0.187381,-9.55626 h 86.457968 c 1.69518,0 3.05989,1.36472 3.05989,3.0599 0,1.69518 -1.36471,3.0599 -3.05989,3.0599 H 56.730322 c -1.695183,0 -3.059897,-1.36472 -3.059897,-3.0599 0,-1.69518 1.364714,-3.0599 3.059897,-3.0599 z m -0.08671,-10.04149 h 96.527503 c 1.69518,0 3.05989,1.36472 3.05989,3.0599 0,1.69518 -1.36471,3.0599 -3.05989,3.0599 H 56.643607 c -1.695183,0 -3.059897,-1.36472 -3.059897,-3.0599 0,-1.69518 1.364714,-3.0599 3.059897,-3.0599 z m -0.02035,-9.71891 h 96.527501 c 1.69518,0 3.0599,1.36471 3.0599,3.05989 0,1.69519 -1.36472,3.0599 -3.0599,3.0599 H 56.623259 c -1.695183,0 -3.059897,-1.36471 -3.059897,-3.0599 0,-1.69518 1.364714,-3.05989 3.059897,-3.05989 z m -0.441166,-9.50341 h 96.527497 c 1.69519,0 3.0599,1.36472 3.0599,3.0599 0,1.69518 -1.36471,3.0599 -3.0599,3.0599 H 56.182093 c -1.695183,0 -3.059897,-1.36472 -3.059897,-3.0599 0,-1.69518 1.364714,-3.0599 3.059897,-3.0599 z m 1.012573,-31.0923 h 77.647124 c 1.69519,0 3.0599,1.36472 3.0599,3.0599 0,1.69518 -1.36471,3.0599 -3.0599,3.0599 H 57.194666 c -1.695183,0 -3.059897,-1.36472 -3.059897,-3.0599 0,-1.69518 1.364714,-3.0599 3.059897,-3.0599 z m -0.08671,-10.04148 h 96.527496 c 1.69519,0 3.0599,1.36472 3.0599,3.0599 0,1.69518 -1.36471,3.0599 -3.0599,3.0599 H 57.107954 c -1.695183,0 -3.059896,-1.36472 -3.059896,-3.0599 0,-1.69518 1.364713,-3.0599 3.059896,-3.0599 z m -0.02035,-9.71893 H 153.6151 c 1.69519,0 3.0599,1.36471 3.0599,3.0599 0,1.69518 -1.36471,3.05989 -3.0599,3.05989 H 57.087603 c -1.695183,0 -3.059897,-1.36471 -3.059897,-3.05989 0,-1.69519 1.364714,-3.0599 3.059897,-3.0599 z m -0.441166,-9.5034 h 96.527503 c 1.69518,0 3.05989,1.36471 3.05989,3.05989 0,1.69519 -1.36471,3.0599 -3.05989,3.0599 H 56.646437 c -1.695183,0 -3.059897,-1.36471 -3.059897,-3.0599 0,-1.69518 1.364714,-3.05989 3.059897,-3.05989 z m 0.187382,-9.556255 h 96.527501 c 1.69518,0 3.0599,1.364714 3.0599,3.059897 0,1.695183 -1.36472,3.059897 -3.0599,3.059897 H 56.833819 c -1.695183,0 -3.059897,-1.364714 -3.059897,-3.059897 0,-1.695183 1.364714,-3.059897 3.059897,-3.059897 z M 56.747103,82.809364 H 153.2746 c 1.69519,0 3.0599,1.364714 3.0599,3.059897 0,1.695183 -1.36471,3.059897 -3.0599,3.059897 H 56.747103 c -1.695183,0 -3.059897,-1.364714 -3.059897,-3.059897 0,-1.695183 1.364714,-3.059897 3.059897,-3.059897 z m -0.02035,-9.718933 h 96.527505 c 1.69518,0 3.05989,1.364714 3.05989,3.059897 0,1.695183 -1.36471,3.059897 -3.05989,3.059897 H 56.726755 c -1.695182,0 -3.059896,-1.364714 -3.059896,-3.059897 0,-1.695183 1.364714,-3.059897 3.059896,-3.059897 z M 56.285589,63.58704 h 65.689561 c 1.69519,0 3.0599,1.364714 3.0599,3.059897 0,1.695182 -1.36471,3.059896 -3.0599,3.059896 H 56.285589 c -1.695182,0 -3.059896,-1.364714 -3.059896,-3.059896 0,-1.695183 1.364714,-3.059897 3.059896,-3.059897 z M 144.30473,46.617984 q -0.57568,0 -1.13309,-0.173618 -0.55741,-0.182757 -0.95947,-0.520857 l 0.34723,-0.539131 q 0.42034,0.319824 0.84068,0.484304 0.42034,0.155344 0.88637,0.155344 0.52086,0 0.82241,-0.201033 0.31068,-0.21017 0.31068,-0.584821 0,-0.173618 -0.0822,-0.29241 -0.0822,-0.12793 -0.24672,-0.219308 -0.16448,-0.09138 -0.42034,-0.164481 -0.25586,-0.0731 -0.59396,-0.155343 -0.42948,-0.109654 -0.74016,-0.21017 -0.31069,-0.100516 -0.51172,-0.237583 -0.20103,-0.137068 -0.29241,-0.328962 -0.0914,-0.191894 -0.0914,-0.475167 0,-0.356375 0.13707,-0.63051 0.1462,-0.283273 0.39293,-0.466029 0.24672,-0.191894 0.57568,-0.283273 0.3381,-0.100516 0.72189,-0.100516 0.53913,0 1.00516,0.173619 0.46603,0.173619 0.78585,0.456891 l -0.36551,0.484305 q -0.30155,-0.264997 -0.6762,-0.392926 -0.37465,-0.137068 -0.76758,-0.137068 -0.43861,0 -0.7493,0.191894 -0.30155,0.182757 -0.30155,0.593959 0,0.164481 0.0548,0.274135 0.064,0.109654 0.20103,0.191894 0.13707,0.08224 0.34724,0.146206 0.21931,0.06396 0.52085,0.137067 0.47517,0.109654 0.82241,0.228446 0.35637,0.109653 0.58482,0.264997 0.23758,0.155343 0.34724,0.365513 0.11879,0.21017 0.11879,0.511718 0,0.667061 -0.51172,1.059988 -0.51172,0.392926 -1.37981,0.392926 z m -2.92268,-0.09138 h -0.80413 v -2.668245 q 0,-0.767578 -0.23758,-1.114815 -0.22845,-0.347237 -0.70361,-0.347237 -0.24672,0 -0.49345,0.100516 -0.24672,0.09138 -0.46603,0.255859 -0.2193,0.164481 -0.38378,0.392926 -0.16448,0.228446 -0.24673,0.502581 v 2.878415 h -0.80412 v -4.769945 h 0.73102 v 1.023436 q 0.28327,-0.50258 0.81327,-0.804128 0.53913,-0.301549 1.16964,-0.301549 0.4112,0 0.68534,0.155343 0.27413,0.146206 0.43861,0.42034 0.16448,0.264997 0.22845,0.63051 0.0731,0.365513 0.0731,0.794991 z m -7.53514,0.09138 q -0.53913,0 -0.98688,-0.201032 -0.43862,-0.201032 -0.75844,-0.539132 -0.31069,-0.338099 -0.48431,-0.785853 -0.17361,-0.447753 -0.17361,-0.941196 0,-0.50258 0.17361,-0.950334 0.18276,-0.447753 0.49345,-0.785853 0.31982,-0.338099 0.75844,-0.539132 0.44775,-0.201032 0.97774,-0.201032 0.53,0 0.97775,0.201032 0.44776,0.201033 0.75844,0.539132 0.31983,0.3381 0.49344,0.785853 0.18276,0.447754 0.18276,0.950334 0,0.493443 -0.17362,0.941196 -0.17362,0.447754 -0.49344,0.785853 -0.31982,0.3381 -0.76758,0.539132 -0.43861,0.201032 -0.97775,0.201032 z m -1.58084,-2.458075 q 0,0.374651 0.11879,0.694475 0.12793,0.319824 0.3381,0.557407 0.21931,0.237584 0.50258,0.374651 0.29241,0.137067 0.62137,0.137067 0.32897,0 0.61224,-0.137067 0.29241,-0.137067 0.51172,-0.374651 0.2193,-0.246721 0.3381,-0.566545 0.12793,-0.328962 0.12793,-0.703613 0,-0.365513 -0.12793,-0.685337 -0.1188,-0.328961 -0.3381,-0.566545 -0.21931,-0.246721 -0.51172,-0.383789 -0.28327,-0.137067 -0.61224,-0.137067 -0.32896,0 -0.62137,0.146205 -0.28327,0.137068 -0.50258,0.383789 -0.21017,0.237583 -0.3381,0.566545 -0.11879,0.319824 -0.11879,0.694475 z m -2.60856,2.366697 v -4.769945 h 0.80413 v 4.769945 z m 0,-5.665452 v -1.005161 h 0.80413 v 1.005161 z m -0.74531,5.427868 q -0.0731,0.03655 -0.19189,0.09138 -0.11879,0.04569 -0.27414,0.100516 -0.1462,0.04569 -0.32896,0.0731 -0.17362,0.03655 -0.36551,0.03655 -0.43862,0 -0.75844,-0.237584 -0.31982,-0.246721 -0.31982,-0.758439 v -3.207377 h -0.64879 v -0.63051 h 0.64879 v -1.589982 h 0.80412 v 1.589982 h 1.06913 v 0.63051 h -1.06913 v 2.960655 q 0.0183,0.264997 0.17362,0.383789 0.15535,0.118792 0.36552,0.118792 0.23758,0 0.42947,-0.0731 0.20104,-0.08224 0.27414,-0.127929 z m -4.57319,0.237584 v -4.769945 h 0.80412 v 4.769945 z m 0,-5.665452 v -1.005161 h 0.80412 v 1.005161 z m -3.78221,5.75683 q -0.49344,0 -0.91378,-0.201032 -0.42034,-0.201032 -0.72189,-0.539132 -0.30155,-0.338099 -0.47517,-0.785853 -0.16448,-0.447753 -0.16448,-0.941196 0,-0.50258 0.15535,-0.950334 0.16448,-0.456891 0.44775,-0.794991 0.29241,-0.338099 0.68534,-0.529994 0.40206,-0.201032 0.87723,-0.201032 0.57568,0 1.02344,0.301549 0.45689,0.301548 0.72188,0.731026 v -2.851002 h 0.80413 v 5.683728 q 0,0.283272 0.25586,0.29241 v 0.694475 q -0.12793,0.01828 -0.21017,0.02741 -0.0731,0.0091 -0.1462,0.0091 -0.23759,0 -0.42034,-0.155343 -0.17362,-0.164481 -0.17362,-0.374651 v -0.402064 q -0.28328,0.466029 -0.75844,0.731026 -0.46603,0.255859 -0.98689,0.255859 z m 0.1919,-0.694475 q 0.2193,0 0.44775,-0.08224 0.23758,-0.08224 0.43862,-0.228446 0.21017,-0.146205 0.35637,-0.338099 0.15534,-0.201032 0.20103,-0.42034 V 43.48371 q -0.0822,-0.228446 -0.24672,-0.429478 -0.16448,-0.21017 -0.37465,-0.356375 -0.20103,-0.155343 -0.43861,-0.237584 -0.22845,-0.09138 -0.4569,-0.09138 -0.35637,0 -0.64878,0.155343 -0.28327,0.146205 -0.49344,0.402064 -0.20104,0.246722 -0.31069,0.575683 -0.10965,0.319824 -0.10965,0.657924 0,0.356375 0.12793,0.685337 0.12793,0.319824 0.34723,0.557407 0.21931,0.237584 0.51172,0.383789 0.30155,0.137067 0.64879,0.137067 z m -3.40698,0.603097 h -0.80413 v -2.668245 q 0,-0.767578 -0.23759,-1.114815 -0.22844,-0.347237 -0.70361,-0.347237 -0.24672,0 -0.49344,0.100516 -0.24672,0.09138 -0.46603,0.255859 -0.21931,0.164481 -0.38379,0.392926 -0.16448,0.228446 -0.24672,0.502581 v 2.878415 h -0.80413 v -4.769945 h 0.73103 v 1.023436 q 0.28327,-0.50258 0.81326,-0.804128 0.53913,-0.301549 1.16964,-0.301549 0.41121,0 0.68534,0.155343 0.27414,0.146206 0.43862,0.42034 0.16448,0.264997 0.22844,0.63051 0.0731,0.365513 0.0731,0.794991 z m -7.53514,0.09138 q -0.53913,0 -0.98689,-0.201032 -0.43861,-0.201032 -0.75844,-0.539132 -0.31068,-0.338099 -0.4843,-0.785853 -0.17362,-0.447753 -0.17362,-0.941196 0,-0.50258 0.17362,-0.950334 0.18276,-0.447753 0.49344,-0.785853 0.31983,-0.338099 0.75844,-0.539132 0.44775,-0.201032 0.97775,-0.201032 0.52999,0 0.97775,0.201032 0.44775,0.201033 0.75844,0.539132 0.31982,0.3381 0.49344,0.785853 0.18275,0.447754 0.18275,0.950334 0,0.493443 -0.17361,0.941196 -0.17362,0.447754 -0.49345,0.785853 -0.31982,0.3381 -0.76757,0.539132 -0.43862,0.201032 -0.97775,0.201032 z m -1.58085,-2.458075 q 0,0.374651 0.1188,0.694475 0.12793,0.319824 0.3381,0.557407 0.2193,0.237584 0.50258,0.374651 0.29241,0.137067 0.62137,0.137067 0.32896,0 0.61223,-0.137067 0.29241,-0.137067 0.51172,-0.374651 0.21931,-0.246721 0.3381,-0.566545 0.12793,-0.328962 0.12793,-0.703613 0,-0.365513 -0.12793,-0.685337 -0.11879,-0.328961 -0.3381,-0.566545 -0.21931,-0.246721 -0.51172,-0.383789 -0.28327,-0.137067 -0.61223,-0.137067 -0.32896,0 -0.62137,0.146205 -0.28328,0.137068 -0.50258,0.383789 -0.21017,0.237583 -0.3381,0.566545 -0.1188,0.319824 -0.1188,0.694475 z m -7.0237,-0.92292 q 0,-0.584821 0.20103,-1.160504 0.21017,-0.584821 0.6031,-1.041713 0.40206,-0.466029 0.97775,-0.749301 0.57568,-0.283273 1.30671,-0.283273 0.86809,0 1.48946,0.392927 0.62137,0.392926 0.92292,1.023436 l -0.64878,0.42034 q -0.14621,-0.310686 -0.35638,-0.520856 -0.20103,-0.21017 -0.44775,-0.3381 -0.23759,-0.127929 -0.49345,-0.182756 -0.25585,-0.05483 -0.50258,-0.05483 -0.53913,0 -0.95947,0.228446 -0.4112,0.219307 -0.69447,0.58482 -0.28328,0.356376 -0.42948,0.813267 -0.13707,0.447754 -0.13707,0.904645 0,0.511718 0.16448,0.977747 0.17362,0.456892 0.47517,0.813267 0.30155,0.356375 0.71275,0.566545 0.4112,0.21017 0.89551,0.21017 0.25586,0 0.52085,-0.06396 0.27414,-0.06397 0.52086,-0.201032 0.24672,-0.146205 0.45689,-0.356375 0.21931,-0.219308 0.35638,-0.520856 l 0.68533,0.374651 q -0.15534,0.365513 -0.43861,0.648785 -0.27414,0.274135 -0.63051,0.466029 -0.34724,0.191895 -0.74017,0.292411 -0.39292,0.100516 -0.76757,0.100516 -0.66707,0 -1.22447,-0.292411 -0.55741,-0.29241 -0.96861,-0.758439 -0.40207,-0.475167 -0.63051,-1.069126 -0.21931,-0.603096 -0.21931,-1.224468 z m -3.788057,3.289617 -0.676199,-0.703613 q -0.392927,0.383789 -0.88637,0.593959 -0.484304,0.201032 -1.041712,0.201032 -0.447753,0 -0.831542,-0.137067 -0.383789,-0.137068 -0.667061,-0.374651 -0.283273,-0.246721 -0.447754,-0.575683 -0.155343,-0.328962 -0.155343,-0.721888 0,-0.319824 0.100516,-0.593959 0.109654,-0.274135 0.283273,-0.502581 0.182756,-0.228445 0.411202,-0.42034 0.228446,-0.201032 0.484305,-0.37465 -0.219308,-0.246722 -0.374651,-0.447754 -0.155343,-0.201032 -0.255859,-0.374651 -0.09138,-0.182756 -0.137067,-0.338099 -0.04569,-0.164481 -0.04569,-0.3381 0,-0.310686 0.12793,-0.575683 0.12793,-0.274135 0.347237,-0.466029 0.228446,-0.201032 0.529994,-0.310686 0.310686,-0.109654 0.667062,-0.109654 0.328961,0 0.612234,0.09138 0.29241,0.09138 0.50258,0.264997 0.219308,0.173619 0.3381,0.42034 0.12793,0.246721 0.12793,0.54827 0,0.274134 -0.109654,0.511718 -0.100516,0.237583 -0.283273,0.447753 -0.173619,0.201033 -0.42034,0.383789 -0.246721,0.182757 -0.520856,0.365513 l 1.653946,1.736187 q 0.173619,-0.328962 0.264997,-0.71275 0.100516,-0.392927 0.100516,-0.831542 h 0.667062 q -0.0091,0.593958 -0.155343,1.105677 -0.137068,0.511718 -0.402065,0.932058 l 1.251883,1.306709 z m -2.52204,-0.54827 q 0.411202,0 0.767577,-0.16448 0.356375,-0.164481 0.639648,-0.456892 l -1.845841,-1.946357 q -0.429478,0.310686 -0.703613,0.648786 -0.264997,0.328962 -0.264997,0.758439 0,0.274135 0.118792,0.493443 0.118792,0.219308 0.310686,0.365513 0.201032,0.146205 0.447754,0.228446 0.255859,0.0731 0.529994,0.0731 z m -0.977748,-4.578051 q 0,0.100517 0.02741,0.201033 0.03655,0.09138 0.109654,0.219307 0.08224,0.118792 0.219308,0.292411 0.137067,0.164481 0.356375,0.392926 0.475167,-0.301548 0.767577,-0.575683 0.292411,-0.283272 0.292411,-0.63051 0,-0.319824 -0.237584,-0.520856 -0.237583,-0.21017 -0.603096,-0.21017 -0.411203,0 -0.6762,0.246722 -0.255859,0.237583 -0.255859,0.58482 z m -6.131909,5.217699 q -0.575683,0 -1.133091,-0.173618 -0.557407,-0.182757 -0.959472,-0.520857 l 0.347238,-0.539131 q 0.42034,0.319824 0.84068,0.484304 0.42034,0.155344 0.886369,0.155344 0.520856,0 0.822404,-0.201033 0.310686,-0.21017 0.310686,-0.584821 0,-0.173618 -0.08224,-0.29241 -0.08224,-0.12793 -0.246721,-0.219308 -0.164481,-0.09138 -0.42034,-0.164481 -0.25586,-0.0731 -0.593959,-0.155343 -0.429478,-0.109654 -0.740164,-0.21017 -0.310686,-0.100516 -0.511718,-0.237583 -0.201032,-0.137068 -0.292411,-0.328962 -0.09138,-0.191894 -0.09138,-0.475167 0,-0.356375 0.137067,-0.63051 0.146206,-0.283273 0.392927,-0.466029 0.246721,-0.191894 0.575683,-0.283273 0.3381,-0.100516 0.721888,-0.100516 0.539132,0 1.005161,0.173619 0.466029,0.173619 0.785853,0.456891 l -0.365513,0.484305 q -0.301548,-0.264997 -0.676199,-0.392926 -0.374651,-0.137068 -0.767577,-0.137068 -0.438616,0 -0.749302,0.191894 -0.301548,0.182757 -0.301548,0.593959 0,0.164481 0.05483,0.274135 0.06396,0.109654 0.201032,0.191894 0.137067,0.08224 0.347237,0.146206 0.219308,0.06396 0.520856,0.137067 0.475167,0.109654 0.822405,0.228446 0.356375,0.109653 0.58482,0.264997 0.237584,0.155343 0.347238,0.365513 0.118792,0.21017 0.118792,0.511718 0,0.667061 -0.511719,1.059988 -0.511718,0.392926 -1.379811,0.392926 z m -2.922534,-0.09138 h -0.804129 v -2.668245 q 0,-0.749302 -0.246721,-1.105677 -0.237584,-0.356375 -0.712751,-0.356375 -0.493442,0 -0.886369,0.356375 -0.383789,0.347237 -0.548269,0.904645 v 2.869277 h -0.804129 v -2.668245 q 0,-0.767578 -0.237584,-1.114815 -0.237583,-0.347237 -0.71275,-0.347237 -0.484305,0 -0.877231,0.347237 -0.392927,0.338099 -0.557408,0.904645 v 2.878415 h -0.804129 v -4.769945 h 0.731027 v 1.023436 q 0.29241,-0.529994 0.758439,-0.813266 0.466029,-0.292411 1.05085,-0.292411 0.603097,0 0.950334,0.328962 0.356375,0.319824 0.438616,0.831542 0.639648,-1.160504 1.818427,-1.160504 0.411202,0 0.685337,0.155343 0.283273,0.146206 0.447754,0.42034 0.164481,0.264997 0.237583,0.63051 0.0731,0.365513 0.0731,0.794991 z m -7.98903,-4.066333 q -0.603097,0.01828 -1.069126,0.310686 -0.456891,0.292411 -0.648786,0.813267 v 2.94238 h -0.804128 v -4.769945 h 0.749301 v 1.105677 q 0.246722,-0.493443 0.648786,-0.794991 0.402064,-0.310686 0.858956,-0.347238 0.09138,0 0.155343,0 0.06396,0 0.109654,0.0091 z m -5.81894,4.157711 q -0.539131,0 -0.986885,-0.191894 -0.447753,-0.201032 -0.767577,-0.539132 -0.319824,-0.338099 -0.502581,-0.785853 -0.173618,-0.456891 -0.173618,-0.959472 0,-0.50258 0.173618,-0.950334 0.182757,-0.447753 0.502581,-0.785853 0.328961,-0.338099 0.776715,-0.529994 0.447753,-0.201032 0.986885,-0.201032 0.539132,0 0.977748,0.201032 0.447753,0.201033 0.758439,0.539132 0.310686,0.328962 0.475167,0.776715 0.173619,0.438616 0.173619,0.913783 0,0.100516 -0.0091,0.182757 0,0.08224 -0.0091,0.127929 h -3.956679 q 0.02741,0.356375 0.164481,0.648786 0.137068,0.29241 0.356376,0.50258 0.219307,0.21017 0.493442,0.328962 0.283273,0.118792 0.593959,0.118792 0.219308,0 0.429478,-0.05483 0.21017,-0.06397 0.392926,-0.164481 0.182757,-0.100516 0.319824,-0.246721 0.146205,-0.146206 0.219308,-0.328962 l 0.694475,0.191894 q -0.118792,0.264997 -0.328962,0.484305 -0.201032,0.219308 -0.475167,0.383789 -0.264997,0.155343 -0.593959,0.246721 -0.328961,0.09138 -0.685337,0.09138 z m 1.635671,-2.796175 q -0.02741,-0.338099 -0.173618,-0.621372 -0.137068,-0.29241 -0.356376,-0.493442 -0.21017,-0.201033 -0.493442,-0.310686 -0.283273,-0.118792 -0.603097,-0.118792 -0.319824,0 -0.603096,0.118792 -0.283273,0.109653 -0.502581,0.319823 -0.21017,0.201033 -0.347237,0.484305 -0.12793,0.283273 -0.155343,0.621372 z m -3.526772,-3.052034 h -2.238768 v 5.756831 h -0.822404 v -5.756831 h -2.238768 v -0.731026 h 5.29994 z" />
    </g>
    <path
       id="rect817-9-5"
       style="opacity:1;fill:#005ad4;fill-opacity:1;stroke:#0060d4;stroke-width:1.11812699;stroke-linecap:round;stroke-linejoin:miter;stroke-miterlimit:4;stroke-dasharray:none;stroke-dashoffset:0;stroke-opacity:1;paint-order:stroke fill markers"
       d="m 27.898438,230.63672 c -6.739816,0 -12.166016,5.4262 -12.166016,12.16601 v 29.42579 c 0,6.73981 5.4262,12.16601 12.166016,12.16601 h 77.152342 c 6.73982,0 12.16602,-5.4262 12.16602,-12.16601 v -29.42579 c 0,-6.73981 -5.4262,-12.16601 -12.16602,-12.16601 z" />
    <g
       aria-label="Blah Blah Blah..."
       transform="matrix(0.30031688,0,0,0.30031688,-316.80216,106.40393)"
       style="font-style:normal;font-variant:normal;font-weight:normal;font-stretch:normal;font-size:8px;line-height:1.25;font-family:'Reem Kufi';-inkscape-font-specification:'Reem Kufi';letter-spacing:0px;word-spacing:0px;fill:#000000;fill-opacity:1;stroke:none"
       id="flowRoot377">
      <path
         id="path2029"
         style="font-style:normal;font-variant:normal;font-weight:normal;font-stretch:normal;font-size:26.66666794px;font-family:Raleway;-inkscape-font-specification:Raleway;fill:#ffffff"
         d="m 1321.5732,456.21218 v -2.98666 h 1.9733 v 2.98666 z m -5.3646,0 v -2.98666 h 1.9734 v 2.98666 z m -5.3646,0 v -2.98666 h 1.9734 v 2.98666 z m -3.4625,0 h -2.3466 v -7.78666 q 0,-2.16 -0.7467,-3.2 -0.7467,-1.06667 -2.1867,-1.06667 -0.6933,0 -1.3866,0.29333 -0.6934,0.26667 -1.3067,0.74667 -0.5867,0.48 -1.0667,1.14667 -0.4533,0.66666 -0.6933,1.46666 v 8.4 h -2.3467 v -19.46666 h 2.3467 v 8.53333 q 0.8267,-1.52 2.24,-2.37333 1.4133,-0.85334 3.0933,-0.85334 1.2267,0 2.08,0.45334 0.8534,0.45333 1.36,1.22666 0.5067,0.77334 0.72,1.86667 0.24,1.06667 0.24,2.29333 z m -23.2983,0.26667 q -0.9867,0 -1.84,-0.32 -0.8533,-0.34667 -1.4933,-0.93333 -0.6134,-0.58667 -0.9867,-1.36 -0.3467,-0.8 -0.3467,-1.73334 0,-0.96 0.4267,-1.73333 0.4267,-0.8 1.2,-1.36 0.8,-0.56 1.8667,-0.88 1.0933,-0.32 2.3733,-0.32 1.0133,0 2.0533,0.18667 1.04,0.18666 1.84,0.50666 v -1.12 q 0,-1.70666 -0.96,-2.66666 -0.96,-0.98667 -2.72,-0.98667 -2.1066,0 -4.4266,1.62667 l -0.7734,-1.52 q 2.6934,-1.81334 5.4134,-1.81334 2.7466,0 4.2666,1.46667 1.5467,1.46667 1.5467,4.13333 v 5.68 q 0,0.82667 0.7467,0.85334 v 2.02666 q -0.3734,0.0533 -0.6134,0.08 -0.24,0.0267 -0.5066,0.0267 -0.6934,0 -1.12,-0.4 -0.4,-0.42667 -0.48,-1.01333 l -0.053,-0.98667 q -0.9333,1.25333 -2.3733,1.92 -1.4133,0.64 -3.04,0.64 z m 0.6133,-1.76 q 1.2534,0 2.32,-0.45333 1.0934,-0.48 1.6534,-1.25334 0.5066,-0.50666 0.5066,-1.04 v -2.05333 q -1.7066,-0.66667 -3.5466,-0.66667 -1.76,0 -2.88,0.74667 -1.0934,0.74667 -1.0934,1.94667 0,0.58666 0.2134,1.09333 0.24,0.50667 0.64,0.88 0.4266,0.37333 0.9866,0.58667 0.56,0.21333 1.2,0.21333 z m -11.7375,-17.97333 h 2.3467 v 15.86666 q 0,0.77334 0.4,1.22667 0.4267,0.42667 1.1733,0.42667 0.2934,0 0.6934,-0.08 0.4,-0.10667 0.7466,-0.24 l 0.3734,1.89333 q -0.5867,0.24 -1.3867,0.4 -0.8,0.16 -1.4133,0.16 -1.36,0 -2.16,-0.77333 -0.7734,-0.77334 -0.7734,-2.16 z m -3.0633,14.58666 q 0,1.09334 -0.4533,2 -0.4267,0.90667 -1.2,1.54667 -0.7467,0.64 -1.76,0.98667 -0.9867,0.34666 -2.1334,0.34666 h -8.9866 v -18.93333 h 9.4133 q 0.9867,0 1.7867,0.42667 0.8,0.42666 1.36,1.12 0.56,0.66666 0.8533,1.54666 0.32,0.85334 0.32,1.73334 0,1.41333 -0.72,2.61333 -0.6933,1.2 -2,1.78667 1.6267,0.48 2.56,1.78666 0.96,1.28 0.96,3.04 z m -2.4267,-0.42666 q 0,-0.64 -0.24,-1.22667 -0.2133,-0.61333 -0.6133,-1.06667 -0.3733,-0.45333 -0.9067,-0.72 -0.5333,-0.26666 -1.1733,-0.26666 h -6.7733 v 6.50666 h 6.5866 q 0.6667,0 1.2267,-0.26666 0.56,-0.26667 0.9867,-0.69334 0.4266,-0.45333 0.6666,-1.04 0.24,-0.58666 0.24,-1.22666 z m -9.7066,-11.54667 v 6.32 h 6.0266 q 0.64,0 1.1734,-0.24 0.5333,-0.26667 0.9066,-0.69333 0.4,-0.42667 0.6134,-0.98667 0.24,-0.58667 0.24,-1.22667 0,-0.66666 -0.2134,-1.25333 -0.2133,-0.58667 -0.5866,-1.01333 -0.3467,-0.42667 -0.88,-0.66667 -0.5067,-0.24 -1.0934,-0.24 z m -13.1934,16.85333 h -2.3466 v -7.78666 q 0,-2.16 -0.7467,-3.2 -0.7467,-1.06667 -2.1867,-1.06667 -0.6933,0 -1.3866,0.29333 -0.6934,0.26667 -1.3067,0.74667 -0.5867,0.48 -1.0667,1.14667 -0.4533,0.66666 -0.6933,1.46666 v 8.4 h -2.3467 v -19.46666 h 2.3467 v 8.53333 q 0.8267,-1.52 2.24,-2.37333 1.4133,-0.85334 3.0933,-0.85334 1.2267,0 2.08,0.45334 0.8534,0.45333 1.36,1.22666 0.5067,0.77334 0.72,1.86667 0.24,1.06667 0.24,2.29333 z m -23.2983,0.26667 q -0.9867,0 -1.84,-0.32 -0.8533,-0.34667 -1.4933,-0.93333 -0.6134,-0.58667 -0.9867,-1.36 -0.3467,-0.8 -0.3467,-1.73334 0,-0.96 0.4267,-1.73333 0.4267,-0.8 1.2,-1.36 0.8,-0.56 1.8667,-0.88 1.0933,-0.32 2.3733,-0.32 1.0133,0 2.0533,0.18667 1.04,0.18666 1.84,0.50666 v -1.12 q 0,-1.70666 -0.96,-2.66666 -0.96,-0.98667 -2.72,-0.98667 -2.1066,0 -4.4266,1.62667 l -0.7734,-1.52 q 2.6934,-1.81334 5.4134,-1.81334 2.7466,0 4.2666,1.46667 1.5467,1.46667 1.5467,4.13333 v 5.68 q 0,0.82667 0.7467,0.85334 v 2.02666 q -0.3734,0.0533 -0.6134,0.08 -0.24,0.0267 -0.5066,0.0267 -0.6934,0 -1.12,-0.4 -0.4,-0.42667 -0.48,-1.01333 l -0.053,-0.98667 q -0.9333,1.25333 -2.3733,1.92 -1.4133,0.64 -3.04,0.64 z m 0.6133,-1.76 q 1.2534,0 2.32,-0.45333 1.0934,-0.48 1.6534,-1.25334 0.5066,-0.50666 0.5066,-1.04 v -2.05333 q -1.7066,-0.66667 -3.5466,-0.66667 -1.76,0 -2.88,0.74667 -1.0934,0.74667 -1.0934,1.94667 0,0.58666 0.2134,1.09333 0.24,0.50667 0.64,0.88 0.4266,0.37333 0.9866,0.58667 0.56,0.21333 1.2,0.21333 z m -11.7375,-17.97333 h 2.3467 v 15.86666 q 0,0.77334 0.4,1.22667 0.4267,0.42667 1.1733,0.42667 0.2934,0 0.6934,-0.08 0.4,-0.10667 0.7466,-0.24 l 0.3734,1.89333 q -0.5867,0.24 -1.3867,0.4 -0.8,0.16 -1.4133,0.16 -1.36,0 -2.16,-0.77333 -0.7734,-0.77334 -0.7734,-2.16 z m -3.0633,14.58666 q 0,1.09334 -0.4533,2 -0.4267,0.90667 -1.2,1.54667 -0.7467,0.64 -1.76,0.98667 -0.9867,0.34666 -2.1334,0.34666 h -8.9866 v -18.93333 h 9.4133 q 0.9867,0 1.7867,0.42667 0.8,0.42666 1.36,1.12 0.56,0.66666 0.8533,1.54666 0.32,0.85334 0.32,1.73334 0,1.41333 -0.72,2.61333 -0.6933,1.2 -2,1.78667 1.6267,0.48 2.56,1.78666 0.96,1.28 0.96,3.04 z m -2.4267,-0.42666 q 0,-0.64 -0.24,-1.22667 -0.2133,-0.61333 -0.6133,-1.06667 -0.3733,-0.45333 -0.9067,-0.72 -0.5333,-0.26666 -1.1733,-0.26666 h -6.7733 v 6.50666 h 6.5866 q 0.6667,0 1.2267,-0.26666 0.56,-0.26667 0.9867,-0.69334 0.4266,-0.45333 0.6666,-1.04 0.24,-0.58666 0.24,-1.22666 z m -9.7066,-11.54667 v 6.32 h 6.0266 q 0.64,0 1.1734,-0.24 0.5333,-0.26667 0.9066,-0.69333 0.4,-0.42667 0.6134,-0.98667 0.24,-0.58667 0.24,-1.22667 0,-0.66666 -0.2134,-1.25333 -0.2133,-0.58667 -0.5866,-1.01333 -0.3467,-0.42667 -0.88,-0.66667 -0.5067,-0.24 -1.0934,-0.24 z m -13.1934,16.85333 h -2.3466 v -7.78666 q 0,-2.16 -0.7467,-3.2 -0.7467,-1.06667 -2.1867,-1.06667 -0.6933,0 -1.3866,0.29333 -0.6934,0.26667 -1.3067,0.74667 -0.5867,0.48 -1.0667,1.14667 -0.4533,0.66666 -0.6933,1.46666 v 8.4 h -2.3467 v -19.46666 h 2.3467 v 8.53333 q 0.8267,-1.52 2.24,-2.37333 1.4133,-0.85334 3.0933,-0.85334 1.2267,0 2.08,0.45334 0.8534,0.45333 1.36,1.22666 0.5067,0.77334 0.72,1.86667 0.24,1.06667 0.24,2.29333 z m -23.2983,0.26667 q -0.9867,0 -1.84,-0.32 -0.8533,-0.34667 -1.4933,-0.93333 -0.6134,-0.58667 -0.9867,-1.36 -0.3467,-0.8 -0.3467,-1.73334 0,-0.96 0.4267,-1.73333 0.4267,-0.8 1.2,-1.36 0.8,-0.56 1.8667,-0.88 1.0933,-0.32 2.3733,-0.32 1.0133,0 2.0533,0.18667 1.04,0.18666 1.84,0.50666 v -1.12 q 0,-1.70666 -0.96,-2.66666 -0.96,-0.98667 -2.72,-0.98667 -2.1066,0 -4.4266,1.62667 l -0.7734,-1.52 q 2.6934,-1.81334 5.4134,-1.81334 2.7466,0 4.2666,1.46667 1.5467,1.46667 1.5467,4.13333 v 5.68 q 0,0.82667 0.7467,0.85334 v 2.02666 q -0.3734,0.0533 -0.6134,0.08 -0.24,0.0267 -0.5066,0.0267 -0.6934,0 -1.12,-0.4 -0.4,-0.42667 -0.48,-1.01333 l -0.053,-0.98667 q -0.9333,1.25333 -2.3733,1.92 -1.4133,0.64 -3.04,0.64 z m 0.6133,-1.76 q 1.2534,0 2.32,-0.45333 1.0934,-0.48 1.6534,-1.25334 0.5066,-0.50666 0.5066,-1.04 v -2.05333 q -1.7066,-0.66667 -3.5466,-0.66667 -1.76,0 -2.88,0.74667 -1.0934,0.74667 -1.0934,1.94667 0,0.58666 0.2134,1.09333 0.24,0.50667 0.64,0.88 0.4266,0.37333 0.9866,0.58667 0.56,0.21333 1.2,0.21333 z m -11.7375,-17.97333 h 2.3467 v 15.86666 q 0,0.77334 0.4,1.22667 0.4267,0.42667 1.1733,0.42667 0.2934,0 0.6934,-0.08 0.4,-0.10667 0.7466,-0.24 l 0.3734,1.89333 q -0.5867,0.24 -1.3867,0.4 -0.8,0.16 -1.4133,0.16 -1.36,0 -2.16,-0.77333 -0.7734,-0.77334 -0.7734,-2.16 z m -3.0633,14.58666 q 0,1.09334 -0.4533,2 -0.4267,0.90667 -1.2,1.54667 -0.7467,0.64 -1.76,0.98667 -0.9867,0.34666 -2.1334,0.34666 h -8.9866 v -18.93333 h 9.4133 q 0.9867,0 1.7867,0.42667 0.8,0.42666 1.36,1.12 0.56,0.66666 0.8533,1.54666 0.32,0.85334 0.32,1.73334 0,1.41333 -0.72,2.61333 -0.6933,1.2 -2,1.78667 1.6267,0.48 2.56,1.78666 0.96,1.28 0.96,3.04 z m -2.4267,-0.42666 q 0,-0.64 -0.24,-1.22667 -0.2133,-0.61333 -0.6133,-1.06667 -0.3733,-0.45333 -0.9067,-0.72 -0.5333,-0.26666 -1.1733,-0.26666 h -6.7733 v 6.50666 h 6.5866 q 0.6667,0 1.2267,-0.26666 0.56,-0.26667 0.9867,-0.69334 0.4266,-0.45333 0.6666,-1.04 0.24,-0.58666 0.24,-1.22666 z m -9.7066,-11.54667 v 6.32 h 6.0266 q 0.64,0 1.1734,-0.24 0.5333,-0.26667 0.9066,-0.69333 0.4,-0.42667 0.6134,-0.98667 0.24,-0.58667 0.24,-1.22667 0,-0.66666 -0.2134,-1.25333 -0.2133,-0.58667 -0.5866,-1.01333 -0.3467,-0.42667 -0.88,-0.66667 -0.5067,-0.24 -1.0934,-0.24 z" />
    </g>
    <g
       aria-label="Surely, no one bothers to read a T&amp;C doc."
       transform="matrix(0.1985008,0,0,0.1985008,-201.19929,160.64039)"
       style="font-style:normal;font-variant:normal;font-weight:normal;font-stretch:normal;font-size:8px;line-height:1.25;font-family:'Reem Kufi';-inkscape-font-specification:'Reem Kufi';letter-spacing:0px;word-spacing:0px;fill:#000000;fill-opacity:1;stroke:none"
       id="flowRoot377-2">
      <path
         id="path1997"
         style="font-style:normal;font-variant:normal;font-weight:normal;font-stretch:normal;font-size:26.66666794px;font-family:Raleway;-inkscape-font-specification:Raleway;fill:#ffffff"
         d="m 1236.2086,522.87887 v -2.98667 h 1.9734 v 2.98667 z m -15.5383,-6.98667 q 0,-1.46666 0.5067,-2.77333 0.5066,-1.30667 1.44,-2.26667 0.9333,-0.98666 2.2133,-1.54666 1.3067,-0.58667 2.9067,-0.58667 2.08,0 3.5733,0.93333 1.52,0.90667 2.2933,2.45334 l -2.2933,0.72 q -0.5333,-0.98667 -1.4933,-1.52 -0.96,-0.56 -2.1334,-0.56 -0.96,0 -1.8133,0.4 -0.8533,0.37333 -1.4667,1.06666 -0.6133,0.69334 -0.9866,1.62667 -0.3467,0.93333 -0.3467,2.05333 0,1.09334 0.3733,2.05334 0.3734,0.96 0.9867,1.68 0.64,0.69333 1.4667,1.09333 0.8533,0.4 1.8133,0.4 0.6133,0 1.2,-0.16 0.6133,-0.18667 1.0933,-0.48 0.5067,-0.29333 0.88,-0.66667 0.3734,-0.4 0.5334,-0.85333 l 2.2933,0.69333 q -0.32,0.77334 -0.9067,1.41334 -0.56,0.64 -1.3333,1.09333 -0.7733,0.45333 -1.7333,0.72 -0.9334,0.26667 -1.9734,0.26667 -1.5733,0 -2.88,-0.58667 -1.3066,-0.58667 -2.24,-1.57333 -0.9333,-0.98667 -1.4666,-2.29334 -0.5067,-1.33333 -0.5067,-2.8 z m -8.9763,7.25334 q -1.5733,0 -2.88,-0.58667 -1.28,-0.58667 -2.2133,-1.57333 -0.9067,-0.98667 -1.4133,-2.29334 -0.5067,-1.30666 -0.5067,-2.74666 0,-1.46667 0.5067,-2.77334 0.5333,-1.30666 1.44,-2.29333 0.9333,-0.98667 2.2133,-1.57333 1.3067,-0.58667 2.8533,-0.58667 1.5467,0 2.8534,0.58667 1.3066,0.58666 2.2133,1.57333 0.9333,0.98667 1.44,2.29333 0.5333,1.30667 0.5333,2.77334 0,1.44 -0.5066,2.74666 -0.5067,1.30667 -1.44,2.29334 -0.9334,0.98666 -2.24,1.57333 -1.28,0.58667 -2.8534,0.58667 z m -4.6133,-7.17334 q 0,1.09334 0.3467,2.02667 0.3733,0.93333 0.9866,1.62667 0.64,0.69333 1.4667,1.09333 0.8533,0.4 1.8133,0.4 0.96,0 1.7867,-0.4 0.8533,-0.4 1.4933,-1.09333 0.64,-0.72 0.9867,-1.65334 0.3733,-0.96 0.3733,-2.05333 0,-1.06667 -0.3733,-2 -0.3467,-0.96 -0.9867,-1.65333 -0.64,-0.72 -1.4933,-1.12 -0.8267,-0.4 -1.7867,-0.4 -0.96,0 -1.8133,0.42666 -0.8267,0.4 -1.4667,1.12 -0.6133,0.69334 -0.9866,1.65334 -0.3467,0.93333 -0.3467,2.02666 z m -12.5042,7.17334 q -1.44,0 -2.6666,-0.58667 -1.2267,-0.58667 -2.1067,-1.57333 -0.88,-0.98667 -1.3867,-2.29334 -0.48,-1.30666 -0.48,-2.74666 0,-1.46667 0.4534,-2.77334 0.48,-1.33333 1.3066,-2.32 0.8534,-0.98666 2,-1.54666 1.1734,-0.58667 2.56,-0.58667 1.68,0 2.9867,0.88 1.3333,0.88 2.1067,2.13333 v -8.32 h 2.3466 v 16.58667 q 0,0.82667 0.7467,0.85333 v 2.02667 q -0.3733,0.0533 -0.6133,0.08 -0.2134,0.0267 -0.4267,0.0267 -0.6933,0 -1.2267,-0.45334 -0.5066,-0.48 -0.5066,-1.09333 v -1.17333 q -0.8267,1.36 -2.2134,2.13333 -1.36,0.74667 -2.88,0.74667 z m 0.56,-2.02667 q 0.64,0 1.3067,-0.24 0.6933,-0.24 1.28,-0.66667 0.6133,-0.42666 1.04,-0.98666 0.4533,-0.58667 0.5867,-1.22667 v -4 q -0.24,-0.66667 -0.72,-1.25333 -0.48,-0.61334 -1.0934,-1.04 -0.5866,-0.45334 -1.28,-0.69334 -0.6666,-0.26666 -1.3333,-0.26666 -1.04,0 -1.8933,0.45333 -0.8267,0.42667 -1.44,1.17333 -0.5867,0.72 -0.9067,1.68 -0.32,0.93334 -0.32,1.92 0,1.04 0.3733,2 0.3734,0.93334 1.0134,1.62667 0.64,0.69333 1.4933,1.12 0.88,0.4 1.8933,0.4 z m -32.0945,-7.84 q 0,-1.70667 0.5866,-3.38667 0.6134,-1.70666 1.76,-3.04 1.1734,-1.36 2.8534,-2.18666 1.68,-0.82667 3.8133,-0.82667 2.5333,0 4.3467,1.14667 1.8133,1.14666 2.6933,2.98666 l -1.8933,1.22667 q -0.4267,-0.90667 -1.04,-1.52 -0.5867,-0.61333 -1.3067,-0.98667 -0.6933,-0.37333 -1.44,-0.53333 -0.7467,-0.16 -1.4667,-0.16 -1.5733,0 -2.8,0.66667 -1.2,0.64 -2.0266,1.70666 -0.8267,1.04 -1.2534,2.37334 -0.4,1.30666 -0.4,2.64 0,1.49333 0.48,2.85333 0.5067,1.33333 1.3867,2.37333 0.88,1.04 2.08,1.65334 1.2,0.61333 2.6133,0.61333 0.7467,0 1.52,-0.18667 0.8,-0.18666 1.52,-0.58666 0.72,-0.42667 1.3334,-1.04 0.64,-0.64 1.04,-1.52 l 2,1.09333 q -0.4534,1.06667 -1.28,1.89333 -0.8,0.8 -1.84,1.36 -1.0134,0.56 -2.16,0.85334 -1.1467,0.29333 -2.24,0.29333 -1.9467,0 -3.5734,-0.85333 -1.6266,-0.85334 -2.8266,-2.21334 -1.1734,-1.38666 -1.84,-3.12 -0.64,-1.76 -0.64,-3.57333 z m -4.2838,9.6 -1.9733,-2.05333 q -1.1467,1.12 -2.5867,1.73333 -1.4133,0.58667 -3.04,0.58667 -1.3067,0 -2.4267,-0.4 -1.12,-0.4 -1.9466,-1.09334 -0.8267,-0.72 -1.3067,-1.68 -0.4533,-0.96 -0.4533,-2.10666 0,-0.93334 0.2933,-1.73334 0.32,-0.8 0.8267,-1.46666 0.5333,-0.66667 1.2,-1.22667 0.6666,-0.58667 1.4133,-1.09333 -0.64,-0.72 -1.0933,-1.30667 -0.4534,-0.58667 -0.7467,-1.09333 -0.2667,-0.53334 -0.4,-0.98667 -0.1333,-0.48 -0.1333,-0.98667 0,-0.90666 0.3733,-1.68 0.3733,-0.8 1.0133,-1.36 0.6667,-0.58666 1.5467,-0.90666 0.9067,-0.32 1.9467,-0.32 0.96,0 1.7866,0.26666 0.8534,0.26667 1.4667,0.77334 0.64,0.50666 0.9867,1.22666 0.3733,0.72 0.3733,1.6 0,0.8 -0.32,1.49334 -0.2933,0.69333 -0.8267,1.30666 -0.5066,0.58667 -1.2266,1.12 -0.72,0.53334 -1.52,1.06667 l 4.8266,5.06667 q 0.5067,-0.96 0.7734,-2.08 0.2933,-1.14667 0.2933,-2.42667 h 1.9467 q -0.027,1.73333 -0.4534,3.22667 -0.4,1.49333 -1.1733,2.72 l 3.6533,3.81333 z m -7.36,-1.6 q 1.2,0 2.24,-0.48 1.04,-0.48 1.8667,-1.33333 l -5.3867,-5.68 q -1.2533,0.90666 -2.0533,1.89333 -0.7734,0.96 -0.7734,2.21333 0,0.8 0.3467,1.44 0.3467,0.64 0.9067,1.06667 0.5866,0.42667 1.3066,0.66667 0.7467,0.21333 1.5467,0.21333 z m -2.8533,-13.36 q 0,0.29333 0.08,0.58667 0.1066,0.26666 0.32,0.64 0.24,0.34666 0.64,0.85333 0.4,0.48 1.04,1.14667 1.3866,-0.88 2.24,-1.68 0.8533,-0.82667 0.8533,-1.84 0,-0.93334 -0.6933,-1.52 -0.6934,-0.61334 -1.76,-0.61334 -1.2,0 -1.9734,0.72 -0.7466,0.69334 -0.7466,1.70667 z m -5.1542,-1.84 h -6.5333 v 16.8 h -2.4 v -16.8 h -6.5334 v -2.13333 h 15.4667 z m 187.88,-16.26668 q -0.9867,0 -1.84,-0.32 -0.8533,-0.34666 -1.4933,-0.93333 -0.6134,-0.58667 -0.9867,-1.36 -0.3467,-0.8 -0.3467,-1.73333 0,-0.96 0.4267,-1.73334 0.4267,-0.8 1.2,-1.36 0.8,-0.56 1.8667,-0.88 1.0933,-0.32 2.3733,-0.32 1.0133,0 2.0533,0.18667 1.04,0.18667 1.84,0.50667 v -1.12 q 0,-1.70667 -0.96,-2.66667 -0.96,-0.98667 -2.72,-0.98667 -2.1066,0 -4.4266,1.62667 l -0.7734,-1.52 q 2.6934,-1.81333 5.4134,-1.81333 2.7466,0 4.2666,1.46666 1.5467,1.46667 1.5467,4.13334 v 5.68 q 0,0.82666 0.7467,0.85333 v 2.02667 q -0.3734,0.0533 -0.6134,0.08 -0.24,0.0267 -0.5066,0.0267 -0.6934,0 -1.12,-0.4 -0.4,-0.42666 -0.48,-1.01333 l -0.053,-0.98667 q -0.9333,1.25334 -2.3733,1.92 -1.4133,0.64 -3.04,0.64 z m 0.6133,-1.76 q 1.2534,0 2.32,-0.45333 1.0934,-0.48 1.6534,-1.25333 0.5066,-0.50667 0.5066,-1.04 v -2.05334 q -1.7066,-0.66666 -3.5466,-0.66666 -1.76,0 -2.88,0.74666 -1.0934,0.74667 -1.0934,1.94667 0,0.58667 0.2134,1.09333 0.24,0.50667 0.64,0.88 0.4266,0.37334 0.9866,0.58667 0.56,0.21333 1.2,0.21333 z m -21.995,1.76 q -1.44,0 -2.6666,-0.58666 -1.2267,-0.58667 -2.1067,-1.57334 -0.88,-0.98666 -1.3867,-2.29333 -0.48,-1.30667 -0.48,-2.74667 0,-1.46666 0.4534,-2.77333 0.48,-1.33333 1.3066,-2.32 0.8534,-0.98667 2,-1.54667 1.1734,-0.58666 2.56,-0.58666 1.68,0 2.9867,0.88 1.3333,0.88 2.1067,2.13333 v -8.32 h 2.3466 v 16.58667 q 0,0.82666 0.7467,0.85333 v 2.02667 q -0.3733,0.0533 -0.6133,0.08 -0.2134,0.0267 -0.4267,0.0267 -0.6933,0 -1.2267,-0.45333 -0.5066,-0.48 -0.5066,-1.09333 v -1.17334 q -0.8267,1.36 -2.2134,2.13334 -1.36,0.74666 -2.88,0.74666 z m 0.56,-2.02666 q 0.64,0 1.3067,-0.24 0.6933,-0.24 1.28,-0.66667 0.6133,-0.42667 1.04,-0.98667 0.4533,-0.58666 0.5867,-1.22666 v -4 q -0.24,-0.66667 -0.72,-1.25334 -0.48,-0.61333 -1.0934,-1.04 -0.5866,-0.45333 -1.28,-0.69333 -0.6666,-0.26667 -1.3333,-0.26667 -1.04,0 -1.8933,0.45334 -0.8267,0.42666 -1.44,1.17333 -0.5867,0.72 -0.9067,1.68 -0.32,0.93333 -0.32,1.92 0,1.04 0.3733,2 0.3734,0.93333 1.0134,1.62667 0.64,0.69333 1.4933,1.12 0.88,0.4 1.8933,0.4 z m -17.5116,2.02666 q -0.9867,0 -1.84,-0.32 -0.8534,-0.34666 -1.4934,-0.93333 -0.6133,-0.58667 -0.9866,-1.36 -0.3467,-0.8 -0.3467,-1.73333 0,-0.96 0.4267,-1.73334 0.4266,-0.8 1.2,-1.36 0.8,-0.56 1.8666,-0.88 1.0934,-0.32 2.3734,-0.32 1.0133,0 2.0533,0.18667 1.04,0.18667 1.84,0.50667 v -1.12 q 0,-1.70667 -0.96,-2.66667 -0.96,-0.98667 -2.72,-0.98667 -2.1067,0 -4.4267,1.62667 l -0.7733,-1.52 q 2.6933,-1.81333 5.4133,-1.81333 2.7467,0 4.2667,1.46666 1.5467,1.46667 1.5467,4.13334 v 5.68 q 0,0.82666 0.7466,0.85333 v 2.02667 q -0.3733,0.0533 -0.6133,0.08 -0.24,0.0267 -0.5067,0.0267 -0.6933,0 -1.12,-0.4 -0.4,-0.42666 -0.48,-1.01333 l -0.053,-0.98667 q -0.9333,1.25334 -2.3733,1.92 -1.4134,0.64 -3.04,0.64 z m 0.6133,-1.76 q 1.2533,0 2.32,-0.45333 1.0933,-0.48 1.6533,-1.25333 0.5067,-0.50667 0.5067,-1.04 v -2.05334 q -1.7067,-0.66666 -3.5467,-0.66666 -1.76,0 -2.88,0.74666 -1.0933,0.74667 -1.0933,1.94667 0,0.58667 0.2133,1.09333 0.24,0.50667 0.64,0.88 0.4267,0.37334 0.9867,0.58667 0.56,0.21333 1.2,0.21333 z m -13.8079,1.76 q -1.5733,0 -2.88,-0.56 -1.3067,-0.58666 -2.24,-1.57333 -0.9333,-0.98667 -1.4667,-2.29333 -0.5066,-1.33334 -0.5066,-2.8 0,-1.46667 0.5066,-2.77334 0.5334,-1.30666 1.4667,-2.29333 0.96,-0.98667 2.2667,-1.54667 1.3066,-0.58666 2.88,-0.58666 1.5733,0 2.8533,0.58666 1.3067,0.58667 2.2133,1.57334 0.9067,0.96 1.3867,2.26666 0.5067,1.28 0.5067,2.66667 0,0.29333 -0.027,0.53333 0,0.24 -0.027,0.37334 h -11.5466 q 0.08,1.04 0.48,1.89333 0.4,0.85333 1.04,1.46667 0.64,0.61333 1.44,0.96 0.8266,0.34666 1.7333,0.34666 0.64,0 1.2533,-0.16 0.6134,-0.18666 1.1467,-0.48 0.5333,-0.29333 0.9333,-0.72 0.4267,-0.42666 0.64,-0.96 l 2.0267,0.56 q -0.3467,0.77334 -0.96,1.41334 -0.5867,0.64 -1.3867,1.12 -0.7733,0.45333 -1.7333,0.72 -0.96,0.26666 -2,0.26666 z m 4.7733,-8.16 q -0.08,-0.98666 -0.5066,-1.81333 -0.4,-0.85333 -1.04,-1.44 -0.6134,-0.58667 -1.44,-0.90667 -0.8267,-0.34666 -1.76,-0.34666 -0.9334,0 -1.76,0.34666 -0.8267,0.32 -1.4667,0.93334 -0.6133,0.58666 -1.0133,1.41333 -0.3734,0.82667 -0.4534,1.81333 z m -12.9483,-3.97333 q -1.76,0.0533 -3.12,0.90667 -1.3333,0.85333 -1.8933,2.37333 v 8.58667 h -2.3467 v -13.92 h 2.1867 v 3.22666 q 0.72,-1.44 1.8933,-2.32 1.1733,-0.90666 2.5067,-1.01333 0.2666,0 0.4533,0 0.1867,0 0.32,0.0267 z m -24.0404,12.13333 q -1.5734,0 -2.88,-0.58666 -1.28,-0.58667 -2.2134,-1.57334 -0.9066,-0.98666 -1.4133,-2.29333 -0.5067,-1.30667 -0.5067,-2.74667 0,-1.46666 0.5067,-2.77333 0.5333,-1.30667 1.44,-2.29333 0.9333,-0.98667 2.2133,-1.57334 1.3067,-0.58666 2.8534,-0.58666 1.5466,0 2.8533,0.58666 1.3067,0.58667 2.2133,1.57334 0.9334,0.98666 1.44,2.29333 0.5334,1.30667 0.5334,2.77333 0,1.44 -0.5067,2.74667 -0.5067,1.30667 -1.44,2.29333 -0.9333,0.98667 -2.24,1.57334 -1.28,0.58666 -2.8533,0.58666 z m -4.6134,-7.17333 q 0,1.09333 0.3467,2.02667 0.3733,0.93333 0.9867,1.62666 0.64,0.69334 1.4666,1.09334 0.8534,0.4 1.8134,0.4 0.96,0 1.7866,-0.4 0.8534,-0.4 1.4934,-1.09334 0.64,-0.72 0.9866,-1.65333 0.3734,-0.96 0.3734,-2.05333 0,-1.06667 -0.3734,-2 -0.3466,-0.96 -0.9866,-1.65334 -0.64,-0.72 -1.4934,-1.12 -0.8266,-0.4 -1.7866,-0.4 -0.96,0 -1.8134,0.42667 -0.8266,0.4 -1.4666,1.12 -0.6134,0.69333 -0.9867,1.65333 -0.3467,0.93334 -0.3467,2.02667 z m -3.4333,6.21333 q -0.2133,0.10667 -0.56,0.26667 -0.3467,0.13333 -0.8,0.29333 -0.4267,0.13334 -0.96,0.21334 -0.5067,0.10666 -1.0667,0.10666 -1.28,0 -2.2133,-0.69333 -0.9333,-0.72 -0.9333,-2.21333 v -9.36 h -1.8934 v -1.84 h 1.8934 v -4.64 h 2.3466 v 4.64 h 3.12 v 1.84 h -3.12 v 8.64 q 0.053,0.77333 0.5067,1.12 0.4533,0.34666 1.0667,0.34666 0.6933,0 1.2533,-0.21333 0.5867,-0.24 0.8,-0.37333 z m -22.2679,0.96 q -1.68,0 -3.3067,-0.50666 -1.6266,-0.53334 -2.8,-1.52 l 1.0134,-1.57334 q 1.2266,0.93334 2.4533,1.41334 1.2267,0.45333 2.5867,0.45333 1.52,0 2.4,-0.58667 0.9066,-0.61333 0.9066,-1.70666 0,-0.50667 -0.24,-0.85334 -0.24,-0.37333 -0.72,-0.64 -0.48,-0.26666 -1.2266,-0.48 -0.7467,-0.21333 -1.7334,-0.45333 -1.2533,-0.32 -2.16,-0.61333 -0.9066,-0.29334 -1.4933,-0.69334 -0.5867,-0.4 -0.8533,-0.96 -0.2667,-0.56 -0.2667,-1.38666 0,-1.04 0.4,-1.84 0.4267,-0.82667 1.1467,-1.36 0.72,-0.56 1.68,-0.82667 0.9866,-0.29333 2.1066,-0.29333 1.5734,0 2.9334,0.50666 1.36,0.50667 2.2933,1.33334 l -1.0667,1.41333 q -0.88,-0.77333 -1.9733,-1.14667 -1.0933,-0.4 -2.24,-0.4 -1.28,0 -2.1867,0.56 -0.88,0.53334 -0.88,1.73334 0,0.48 0.16,0.8 0.1867,0.32 0.5867,0.56 0.4,0.24 1.0133,0.42666 0.64,0.18667 1.52,0.4 1.3867,0.32 2.4,0.66667 1.04,0.32 1.7067,0.77333 0.6933,0.45334 1.0133,1.06667 0.3467,0.61333 0.3467,1.49333 0,1.94667 -1.4933,3.09334 -1.4934,1.14666 -4.0267,1.14666 z m -7.2075,-12.13333 q -1.76,0.0533 -3.12,0.90667 -1.3333,0.85333 -1.8933,2.37333 v 8.58667 h -2.3467 v -13.92 h 2.1867 v 3.22666 q 0.72,-1.44 1.8933,-2.32 1.1733,-0.90666 2.5067,-1.01333 0.2666,0 0.4533,0 0.1867,0 0.32,0.0267 z m -16.9813,12.13333 q -1.5733,0 -2.88,-0.56 -1.3066,-0.58666 -2.24,-1.57333 -0.9333,-0.98667 -1.4666,-2.29333 -0.5067,-1.33334 -0.5067,-2.8 0,-1.46667 0.5067,-2.77334 0.5333,-1.30666 1.4666,-2.29333 0.96,-0.98667 2.2667,-1.54667 1.3067,-0.58666 2.88,-0.58666 1.5733,0 2.8533,0.58666 1.3067,0.58667 2.2134,1.57334 0.9066,0.96 1.3866,2.26666 0.5067,1.28 0.5067,2.66667 0,0.29333 -0.027,0.53333 0,0.24 -0.027,0.37334 H 1188.41 q 0.08,1.04 0.48,1.89333 0.4,0.85333 1.04,1.46667 0.64,0.61333 1.44,0.96 0.8267,0.34666 1.7333,0.34666 0.64,0 1.2534,-0.16 0.6133,-0.18666 1.1466,-0.48 0.5334,-0.29333 0.9334,-0.72 0.4266,-0.42666 0.64,-0.96 l 2.0266,0.56 q -0.3466,0.77334 -0.96,1.41334 -0.5866,0.64 -1.3866,1.12 -0.7734,0.45333 -1.7334,0.72 -0.96,0.26666 -2,0.26666 z m 4.7734,-8.16 q -0.08,-0.98666 -0.5067,-1.81333 -0.4,-0.85333 -1.04,-1.44 -0.6133,-0.58667 -1.44,-0.90667 -0.8267,-0.34666 -1.76,-0.34666 -0.9333,0 -1.76,0.34666 -0.8267,0.32 -1.4667,0.93334 -0.6133,0.58666 -1.0133,1.41333 -0.3733,0.82667 -0.4533,1.81333 z m -14.5825,7.89334 h -2.3467 v -7.78667 q 0,-2.16 -0.7467,-3.2 -0.7466,-1.06667 -2.1866,-1.06667 -0.6934,0 -1.3867,0.29334 -0.6933,0.26666 -1.3067,0.74666 -0.5866,0.48 -1.0666,1.14667 -0.4534,0.66667 -0.6934,1.46667 v 8.4 h -2.3466 v -19.46667 h 2.3466 v 8.53333 q 0.8267,-1.52 2.24,-2.37333 1.4134,-0.85333 3.0934,-0.85333 1.2266,0 2.08,0.45333 0.8533,0.45333 1.36,1.22667 0.5066,0.77333 0.72,1.86666 0.24,1.06667 0.24,2.29334 z m -14.255,-0.69334 q -0.2134,0.10667 -0.56,0.26667 -0.3467,0.13333 -0.8,0.29333 -0.4267,0.13334 -0.96,0.21334 -0.5067,0.10666 -1.0667,0.10666 -1.28,0 -2.2133,-0.69333 -0.9334,-0.72 -0.9334,-2.21333 v -9.36 h -1.8933 v -1.84 h 1.8933 v -4.64 h 2.3467 v 4.64 h 3.12 v 1.84 h -3.12 v 8.64 q 0.053,0.77333 0.5067,1.12 0.4533,0.34666 1.0666,0.34666 0.6934,0 1.2534,-0.21333 0.5866,-0.24 0.8,-0.37333 z m -16.9013,0.96 q -1.5733,0 -2.88,-0.58666 -1.28,-0.58667 -2.2133,-1.57334 -0.9067,-0.98666 -1.4133,-2.29333 -0.5067,-1.30667 -0.5067,-2.74667 0,-1.46666 0.5067,-2.77333 0.5333,-1.30667 1.44,-2.29333 0.9333,-0.98667 2.2133,-1.57334 1.3067,-0.58666 2.8533,-0.58666 1.5467,0 2.8534,0.58666 1.3066,0.58667 2.2133,1.57334 0.9333,0.98666 1.44,2.29333 0.5333,1.30667 0.5333,2.77333 0,1.44 -0.5066,2.74667 -0.5067,1.30667 -1.44,2.29333 -0.9334,0.98667 -2.24,1.57334 -1.28,0.58666 -2.8534,0.58666 z m -4.6133,-7.17333 q 0,1.09333 0.3467,2.02667 0.3733,0.93333 0.9866,1.62666 0.64,0.69334 1.4667,1.09334 0.8533,0.4 1.8133,0.4 0.96,0 1.7867,-0.4 0.8533,-0.4 1.4933,-1.09334 0.64,-0.72 0.9867,-1.65333 0.3733,-0.96 0.3733,-2.05333 0,-1.06667 -0.3733,-2 -0.3467,-0.96 -0.9867,-1.65334 -0.64,-0.72 -1.4933,-1.12 -0.8267,-0.4 -1.7867,-0.4 -0.96,0 -1.8133,0.42667 -0.8267,0.4 -1.4667,1.12 -0.6133,0.69333 -0.9866,1.65333 -0.3467,0.93334 -0.3467,2.02667 z m -10.9346,7.17333 q -1.6267,0 -2.96,-0.8 -1.3333,-0.8 -2.1067,-2.08 v 2.61334 h -2.08 v -19.46667 h 2.3467 v 8.32 q 0.88,-1.36 2.16,-2.18667 1.28,-0.82666 2.9867,-0.82666 1.44,0 2.5866,0.61333 1.1467,0.61333 1.9467,1.62667 0.8267,0.98666 1.2533,2.32 0.4534,1.30666 0.4534,2.69333 0,1.46667 -0.5067,2.77333 -0.5067,1.30667 -1.3867,2.29334 -0.88,0.96 -2.1066,1.54666 -1.2,0.56 -2.5867,0.56 z m -0.5867,-2.02666 q 1.04,0 1.92,-0.42667 0.88,-0.42667 1.52,-1.14667 0.64,-0.72 0.9867,-1.62666 0.3467,-0.93334 0.3467,-1.94667 0,-1.01333 -0.3467,-1.94667 -0.32,-0.96 -0.9333,-1.68 -0.5867,-0.72 -1.44,-1.14666 -0.8267,-0.45334 -1.84,-0.45334 -0.7467,0 -1.4134,0.26667 -0.6666,0.26667 -1.2533,0.72 -0.56,0.42667 -1.0133,1.01333 -0.4267,0.58667 -0.7467,1.25334 v 4.02666 q 0.1333,0.66667 0.56,1.22667 0.4533,0.56 1.04,0.98667 0.6133,0.4 1.28,0.64 0.6933,0.24 1.3333,0.24 z m 160.173,-31.30668 q -1.5734,0 -2.88,-0.56 -1.3067,-0.58667 -2.24,-1.57333 -0.9334,-0.98667 -1.4667,-2.29334 -0.5067,-1.33333 -0.5067,-2.8 0,-1.46666 0.5067,-2.77333 0.5333,-1.30667 1.4667,-2.29333 0.96,-0.98667 2.2666,-1.54667 1.3067,-0.58667 2.88,-0.58667 1.5734,0 2.8534,0.58667 1.3066,0.58667 2.2133,1.57333 0.9067,0.96 1.3867,2.26667 0.5066,1.28 0.5066,2.66667 0,0.29333 -0.027,0.53333 0,0.24 -0.027,0.37333 h -11.5467 q 0.08,1.04 0.48,1.89334 0.4,0.85333 1.04,1.46666 0.64,0.61334 1.44,0.96 0.8267,0.34667 1.7334,0.34667 0.64,0 1.2533,-0.16 0.6133,-0.18667 1.1467,-0.48 0.5333,-0.29333 0.9333,-0.72 0.4267,-0.42667 0.64,-0.96 l 2.0267,0.56 q -0.3467,0.77333 -0.96,1.41333 -0.5867,0.64 -1.3867,1.12 -0.7733,0.45334 -1.7333,0.72 -0.96,0.26667 -2,0.26667 z m 4.7733,-8.16 q -0.08,-0.98667 -0.5067,-1.81333 -0.4,-0.85334 -1.04,-1.44 -0.6133,-0.58667 -1.44,-0.90667 -0.8266,-0.34667 -1.76,-0.34667 -0.9333,0 -1.76,0.34667 -0.8266,0.32 -1.4666,0.93333 -0.6134,0.58667 -1.0134,1.41334 -0.3733,0.82666 -0.4533,1.81333 z m -14.5825,7.89333 h -2.3467 v -7.78666 q 0,-2.24 -0.6933,-3.25334 -0.6667,-1.01333 -2.0533,-1.01333 -0.72,0 -1.44,0.29333 -0.72,0.26667 -1.36,0.74667 -0.64,0.48 -1.12,1.14667 -0.48,0.66666 -0.72,1.46666 v 8.4 h -2.3467 v -13.92 h 2.1333 v 2.98667 q 0.8267,-1.46667 2.3734,-2.34667 1.5733,-0.88 3.4133,-0.88 1.2,0 2,0.45334 0.8,0.42666 1.28,1.22666 0.48,0.77334 0.6667,1.84 0.2133,1.06667 0.2133,2.32 z m -21.9896,0.26667 q -1.5733,0 -2.88,-0.58667 -1.28,-0.58666 -2.2133,-1.57333 -0.9067,-0.98667 -1.4134,-2.29333 -0.5066,-1.30667 -0.5066,-2.74667 0,-1.46667 0.5066,-2.77333 0.5334,-1.30667 1.44,-2.29334 0.9334,-0.98666 2.2134,-1.57333 1.3066,-0.58667 2.8533,-0.58667 1.5467,0 2.8533,0.58667 1.3067,0.58667 2.2134,1.57333 0.9333,0.98667 1.44,2.29334 0.5333,1.30666 0.5333,2.77333 0,1.44 -0.5067,2.74667 -0.5066,1.30666 -1.44,2.29333 -0.9333,0.98667 -2.24,1.57333 -1.28,0.58667 -2.8533,0.58667 z m -4.6133,-7.17333 q 0,1.09333 0.3466,2.02666 0.3734,0.93334 0.9867,1.62667 0.64,0.69333 1.4667,1.09333 0.8533,0.4 1.8133,0.4 0.96,0 1.7867,-0.4 0.8533,-0.4 1.4933,-1.09333 0.64,-0.72 0.9867,-1.65333 0.3733,-0.96 0.3733,-2.05334 0,-1.06666 -0.3733,-2 -0.3467,-0.96 -0.9867,-1.65333 -0.64,-0.72 -1.4933,-1.12 -0.8267,-0.4 -1.7867,-0.4 -0.96,0 -1.8133,0.42667 -0.8267,0.4 -1.4667,1.12 -0.6133,0.69333 -0.9867,1.65333 -0.3466,0.93333 -0.3466,2.02667 z m -18.1471,7.17333 q -1.5733,0 -2.88,-0.58667 -1.28,-0.58666 -2.2133,-1.57333 -0.9067,-0.98667 -1.4134,-2.29333 -0.5066,-1.30667 -0.5066,-2.74667 0,-1.46667 0.5066,-2.77333 0.5334,-1.30667 1.44,-2.29334 0.9334,-0.98666 2.2134,-1.57333 1.3066,-0.58667 2.8533,-0.58667 1.5467,0 2.8533,0.58667 1.3067,0.58667 2.2134,1.57333 0.9333,0.98667 1.44,2.29334 0.5333,1.30666 0.5333,2.77333 0,1.44 -0.5067,2.74667 -0.5066,1.30666 -1.44,2.29333 -0.9333,0.98667 -2.24,1.57333 -1.28,0.58667 -2.8533,0.58667 z m -4.6133,-7.17333 q 0,1.09333 0.3466,2.02666 0.3734,0.93334 0.9867,1.62667 0.64,0.69333 1.4667,1.09333 0.8533,0.4 1.8133,0.4 0.96,0 1.7867,-0.4 0.8533,-0.4 1.4933,-1.09333 0.64,-0.72 0.9867,-1.65333 0.3733,-0.96 0.3733,-2.05334 0,-1.06666 -0.3733,-2 -0.3467,-0.96 -0.9867,-1.65333 -0.64,-0.72 -1.4933,-1.12 -0.8267,-0.4 -1.7867,-0.4 -0.96,0 -1.8133,0.42667 -0.8267,0.4 -1.4667,1.12 -0.6133,0.69333 -0.9867,1.65333 -0.3466,0.93333 -0.3466,2.02667 z m -5.1159,6.90666 h -2.3466 v -7.78666 q 0,-2.24 -0.6934,-3.25334 -0.6666,-1.01333 -2.0533,-1.01333 -0.72,0 -1.44,0.29333 -0.72,0.26667 -1.36,0.74667 -0.64,0.48 -1.12,1.14667 -0.48,0.66666 -0.72,1.46666 v 8.4 h -2.3467 v -13.92 h 2.1334 v 2.98667 q 0.8266,-1.46667 2.3733,-2.34667 1.5733,-0.88 3.4133,-0.88 1.2,0 2,0.45334 0.8,0.42666 1.28,1.22666 0.48,0.77334 0.6667,1.84 0.2133,1.06667 0.2133,2.32 z m -24.3958,2.16 0.5333,-2.37333 h -0.8 v -2.77333 h 2.2134 v 2.77333 l -0.8,2.37333 z m -12.8775,1.62667 q 0.3467,0.0533 0.6933,0.08 0.3467,0.0267 0.5334,0.0267 0.32,0 0.56,-0.16 0.2666,-0.13334 0.5066,-0.56 0.2667,-0.42667 0.5867,-1.2 0.32,-0.74667 0.8,-1.97334 l -5.8933,-13.92 h 2.4266 l 4.7467,11.81334 4.32,-11.81334 h 2.24 l -6.7733,17.57334 q -0.3734,0.93333 -1.2534,1.62666 -0.8533,0.72 -2.3733,0.72 -0.24,0 -0.5067,-0.0267 -0.24,-0.0267 -0.6133,-0.10667 z m -7.67,-23.25333 h 2.3467 v 15.86666 q 0,0.77334 0.4,1.22667 0.4266,0.42667 1.1733,0.42667 0.2933,0 0.6933,-0.08 0.4,-0.10667 0.7467,-0.24 l 0.3733,1.89333 q -0.5866,0.24 -1.3866,0.4 -0.8,0.16 -1.4134,0.16 -1.36,0 -2.16,-0.77333 -0.7733,-0.77334 -0.7733,-2.16 z m -9.6746,19.73333 q -1.5733,0 -2.88,-0.56 -1.3067,-0.58667 -2.24,-1.57333 -0.9333,-0.98667 -1.4667,-2.29334 -0.5066,-1.33333 -0.5066,-2.8 0,-1.46666 0.5066,-2.77333 0.5334,-1.30667 1.4667,-2.29333 0.96,-0.98667 2.2667,-1.54667 1.3066,-0.58667 2.88,-0.58667 1.5733,0 2.8533,0.58667 1.3067,0.58667 2.2133,1.57333 0.9067,0.96 1.3867,2.26667 0.5067,1.28 0.5067,2.66667 0,0.29333 -0.027,0.53333 0,0.24 -0.027,0.37333 h -11.5466 q 0.08,1.04 0.48,1.89334 0.4,0.85333 1.04,1.46666 0.64,0.61334 1.44,0.96 0.8266,0.34667 1.7333,0.34667 0.64,0 1.2533,-0.16 0.6134,-0.18667 1.1467,-0.48 0.5333,-0.29333 0.9333,-0.72 0.4267,-0.42667 0.64,-0.96 l 2.0267,0.56 q -0.3467,0.77333 -0.96,1.41333 -0.5867,0.64 -1.3867,1.12 -0.7733,0.45334 -1.7333,0.72 -0.96,0.26667 -2,0.26667 z m 4.7733,-8.16 q -0.08,-0.98667 -0.5066,-1.81333 -0.4,-0.85334 -1.04,-1.44 -0.6134,-0.58667 -1.44,-0.90667 -0.8267,-0.34667 -1.76,-0.34667 -0.9334,0 -1.76,0.34667 -0.8267,0.32 -1.4667,0.93333 -0.6133,0.58667 -1.0133,1.41334 -0.3734,0.82666 -0.4534,1.81333 z m -12.9483,-3.97333 q -1.76,0.0533 -3.12,0.90666 -1.3333,0.85334 -1.8933,2.37334 v 8.58666 h -2.3467 v -13.92 h 2.1867 v 3.22667 q 0.72,-1.44 1.8933,-2.32 1.1733,-0.90667 2.5067,-1.01333 0.2666,0 0.4533,0 0.1867,0 0.32,0.0267 z m -19.1083,12.13333 q -2.1867,0 -3.3067,-1.46667 -1.12,-1.46666 -1.12,-4.37333 v -8.34667 h 2.3467 v 7.89334 q 0,4.26666 2.96,4.26666 1.44,0 2.6933,-0.90666 1.28,-0.93334 1.8933,-2.53334 v -8.72 h 2.3467 v 11.04 q 0,0.82667 0.7467,0.85334 v 2.02666 q -0.4,0.0533 -0.64,0.0533 -0.2134,0.0267 -0.4267,0.0267 -0.6933,0 -1.1733,-0.4 -0.4534,-0.42666 -0.48,-1.04 l -0.053,-1.62666 q -0.9333,1.57333 -2.4533,2.42666 -1.52,0.82667 -3.3333,0.82667 z m -9.05,-15.22667 q -0.32,-0.37333 -0.8534,-0.72 -0.5333,-0.34666 -1.2,-0.61333 -0.6666,-0.29333 -1.4666,-0.45333 -0.7734,-0.18667 -1.6267,-0.18667 -2.2133,0 -3.2533,0.82667 -1.0134,0.82666 -1.0134,2.26666 0,0.77334 0.2934,1.28 0.2933,0.50667 0.9066,0.88 0.64,0.34667 1.5734,0.61334 0.9333,0.26666 2.2133,0.56 1.4667,0.32 2.64,0.74666 1.2,0.4 2.0267,1.01334 0.8533,0.61333 1.28,1.49333 0.4533,0.88 0.4533,2.16 0,1.36 -0.5333,2.37333 -0.5334,0.98667 -1.4667,1.65334 -0.9067,0.64 -2.16,0.96 -1.2533,0.29333 -2.72,0.29333 -2.1867,0 -4.16,-0.66667 -1.9467,-0.69333 -3.5467,-2 l 1.1467,-2.02666 q 0.4267,0.45333 1.0933,0.90666 0.6934,0.45334 1.5467,0.82667 0.88,0.34667 1.8667,0.58667 1.0133,0.21333 2.1066,0.21333 2.0267,0 3.1467,-0.72 1.12,-0.72 1.12,-2.16 0,-0.8 -0.3733,-1.33333 -0.3467,-0.56 -1.04,-0.96 -0.6934,-0.4 -1.7334,-0.69334 -1.0133,-0.32 -2.32,-0.64 -1.44,-0.34666 -2.5333,-0.74666 -1.0933,-0.4 -1.84,-0.96 -0.72,-0.56 -1.0933,-1.36 -0.3734,-0.8 -0.3734,-1.92 0,-1.36 0.5067,-2.4 0.5067,-1.04 1.4133,-1.76 0.9067,-0.72 2.16,-1.06667 1.2534,-0.37333 2.72,-0.37333 1.92,0 3.4667,0.58666 1.5467,0.58667 2.7467,1.57334 z" />
    </g>
    <g
       aria-label="Try Summarizer."
       transform="matrix(0.30031688,0,0,0.30031688,-309.90348,140.06906)"
       style="font-style:normal;font-variant:normal;font-weight:normal;font-stretch:normal;font-size:8px;line-height:1.25;font-family:'Reem Kufi';-inkscape-font-specification:'Reem Kufi';letter-spacing:0px;word-spacing:0px;fill:#000000;fill-opacity:1;stroke:none"
       id="flowRoot377-5">
      <path
         id="path2059"
         style="font-style:normal;font-variant:normal;font-weight:normal;font-stretch:normal;font-size:26.66666794px;font-family:Raleway;-inkscape-font-specification:Raleway;fill:#ffffff"
         d="m 1322.9274,456.21218 v -2.98666 h 1.9733 v 2.98666 z m -0.8909,-11.86666 q -1.76,0.0533 -3.12,0.90666 -1.3333,0.85334 -1.8933,2.37334 v 8.58666 h -2.3467 v -13.92 h 2.1867 v 3.22667 q 0.72,-1.44 1.8933,-2.32 1.1734,-0.90667 2.5067,-1.01333 0.2667,0 0.4533,0 0.1867,0 0.32,0.0267 z m -16.9812,12.13333 q -1.5733,0 -2.88,-0.56 -1.3067,-0.58667 -2.24,-1.57333 -0.9333,-0.98667 -1.4667,-2.29334 -0.5066,-1.33333 -0.5066,-2.8 0,-1.46666 0.5066,-2.77333 0.5334,-1.30667 1.4667,-2.29333 0.96,-0.98667 2.2667,-1.54667 1.3066,-0.58667 2.88,-0.58667 1.5733,0 2.8533,0.58667 1.3067,0.58667 2.2133,1.57333 0.9067,0.96 1.3867,2.26667 0.5067,1.28 0.5067,2.66667 0,0.29333 -0.027,0.53333 0,0.24 -0.027,0.37333 h -11.5466 q 0.08,1.04 0.48,1.89334 0.4,0.85333 1.04,1.46666 0.64,0.61334 1.44,0.96 0.8266,0.34667 1.7333,0.34667 0.64,0 1.2533,-0.16 0.6134,-0.18667 1.1467,-0.48 0.5333,-0.29333 0.9333,-0.72 0.4267,-0.42667 0.64,-0.96 l 2.0267,0.56 q -0.3467,0.77333 -0.96,1.41333 -0.5867,0.64 -1.3867,1.12 -0.7733,0.45334 -1.7333,0.72 -0.96,0.26667 -2,0.26667 z m 4.7733,-8.16 q -0.08,-0.98667 -0.5066,-1.81333 -0.4,-0.85334 -1.04,-1.44 -0.6134,-0.58667 -1.44,-0.90667 -0.8267,-0.34667 -1.76,-0.34667 -0.9334,0 -1.76,0.34667 -0.8267,0.32 -1.4667,0.93333 -0.6133,0.58667 -1.0133,1.41334 -0.3734,0.82666 -0.4534,1.81333 z m -24.8912,6.37333 8.9066,-10.69333 h -8.6666 v -1.70667 h 11.1733 v 1.52 l -8.8533,10.69334 h 8.88 v 1.70666 h -11.44 z m -5.0525,1.52 v -13.92 h 2.3466 v 13.92 z m 0,-16.53333 v -2.93333 h 2.3466 v 2.93333 z m -2.3275,4.66667 q -1.76,0.0533 -3.12,0.90666 -1.3334,0.85334 -1.8934,2.37334 v 8.58666 h -2.3466 v -13.92 h 2.1866 v 3.22667 q 0.72,-1.44 1.8934,-2.32 1.1733,-0.90667 2.5066,-1.01333 0.2667,0 0.4534,0 0.1866,0 0.32,0.0267 z m -18.5784,12.13333 q -0.9866,0 -1.84,-0.32 -0.8533,-0.34667 -1.4933,-0.93333 -0.6133,-0.58667 -0.9867,-1.36 -0.3466,-0.8 -0.3466,-1.73334 0,-0.96 0.4266,-1.73333 0.4267,-0.8 1.2,-1.36 0.8,-0.56 1.8667,-0.88 1.0933,-0.32 2.3733,-0.32 1.0134,0 2.0534,0.18667 1.04,0.18666 1.84,0.50666 v -1.12 q 0,-1.70666 -0.96,-2.66666 -0.96,-0.98667 -2.72,-0.98667 -2.1067,0 -4.4267,1.62667 l -0.7733,-1.52 q 2.6933,-1.81334 5.4133,-1.81334 2.7467,0 4.2667,1.46667 1.5466,1.46667 1.5466,4.13333 v 5.68 q 0,0.82667 0.7467,0.85334 v 2.02666 q -0.3733,0.0533 -0.6133,0.08 -0.24,0.0267 -0.5067,0.0267 -0.6933,0 -1.12,-0.4 -0.4,-0.42667 -0.48,-1.01333 l -0.053,-0.98667 q -0.9334,1.25333 -2.3734,1.92 -1.4133,0.64 -3.04,0.64 z m 0.6134,-1.76 q 1.2533,0 2.32,-0.45333 1.0933,-0.48 1.6533,-1.25334 0.5067,-0.50666 0.5067,-1.04 v -2.05333 q -1.7067,-0.66667 -3.5467,-0.66667 -1.76,0 -2.88,0.74667 -1.0933,0.74667 -1.0933,1.94667 0,0.58666 0.2133,1.09333 0.24,0.50667 0.64,0.88 0.4267,0.37333 0.9867,0.58667 0.56,0.21333 1.2,0.21333 z m -7.8354,1.49333 h -2.3467 v -7.78666 q 0,-2.18667 -0.72,-3.22667 -0.6933,-1.04 -2.08,-1.04 -1.44,0 -2.5867,1.04 -1.12,1.01333 -1.6,2.64 v 8.37333 h -2.3466 v -7.78666 q 0,-2.24 -0.6934,-3.25334 -0.6933,-1.01333 -2.08,-1.01333 -1.4133,0 -2.56,1.01333 -1.1466,0.98667 -1.6266,2.64 v 8.4 h -2.3467 v -13.92 h 2.1333 v 2.98667 q 0.8534,-1.54667 2.2134,-2.37333 1.36,-0.85334 3.0666,-0.85334 1.76,0 2.7734,0.96 1.04,0.93334 1.28,2.42667 1.8666,-3.38667 5.3066,-3.38667 1.2,0 2,0.45334 0.8267,0.42666 1.3067,1.22666 0.48,0.77334 0.6933,1.84 0.2134,1.06667 0.2134,2.32 z m -24.6355,0 h -2.3466 v -7.78666 q 0,-2.18667 -0.72,-3.22667 -0.6934,-1.04 -2.08,-1.04 -1.44,0 -2.5867,1.04 -1.12,1.01333 -1.6,2.64 v 8.37333 h -2.3467 v -7.78666 q 0,-2.24 -0.6933,-3.25334 -0.6933,-1.01333 -2.08,-1.01333 -1.4133,0 -2.56,1.01333 -1.1467,0.98667 -1.6267,2.64 v 8.4 h -2.3466 v -13.92 h 2.1333 v 2.98667 q 0.8533,-1.54667 2.2133,-2.37333 1.36,-0.85334 3.0667,-0.85334 1.76,0 2.7733,0.96 1.04,0.93334 1.28,2.42667 1.8667,-3.38667 5.3067,-3.38667 1.2,0 2,0.45334 0.8267,0.42666 1.3067,1.22666 0.48,0.77334 0.6933,1.84 0.2133,1.06667 0.2133,2.32 z m -32.735,0.26667 q -2.1866,0 -3.3066,-1.46667 -1.12,-1.46666 -1.12,-4.37333 v -8.34667 h 2.3466 v 7.89334 q 0,4.26666 2.96,4.26666 1.44,0 2.6934,-0.90666 1.28,-0.93334 1.8933,-2.53334 v -8.72 h 2.3467 v 11.04 q 0,0.82667 0.7466,0.85334 v 2.02666 q -0.4,0.0533 -0.64,0.0533 -0.2133,0.0267 -0.4266,0.0267 -0.6934,0 -1.1734,-0.4 -0.4533,-0.42666 -0.48,-1.04 l -0.053,-1.62666 q -0.9333,1.57333 -2.4533,2.42666 -1.52,0.82667 -3.3334,0.82667 z m -9.05,-15.22667 q -0.32,-0.37333 -0.8533,-0.72 -0.5333,-0.34666 -1.2,-0.61333 -0.6667,-0.29333 -1.4667,-0.45333 -0.7733,-0.18667 -1.6266,-0.18667 -2.2134,0 -3.2534,0.82667 -1.0133,0.82666 -1.0133,2.26666 0,0.77334 0.2933,1.28 0.2934,0.50667 0.9067,0.88 0.64,0.34667 1.5733,0.61334 0.9334,0.26666 2.2134,0.56 1.4666,0.32 2.64,0.74666 1.2,0.4 2.0266,1.01334 0.8534,0.61333 1.28,1.49333 0.4534,0.88 0.4534,2.16 0,1.36 -0.5334,2.37333 -0.5333,0.98667 -1.4666,1.65334 -0.9067,0.64 -2.16,0.96 -1.2534,0.29333 -2.72,0.29333 -2.1867,0 -4.16,-0.66667 -1.9467,-0.69333 -3.5467,-2 l 1.1467,-2.02666 q 0.4266,0.45333 1.0933,0.90666 0.6933,0.45334 1.5467,0.82667 0.88,0.34667 1.8666,0.58667 1.0134,0.21333 2.1067,0.21333 2.0267,0 3.1467,-0.72 1.12,-0.72 1.12,-2.16 0,-0.8 -0.3734,-1.33333 -0.3466,-0.56 -1.04,-0.96 -0.6933,-0.4 -1.7333,-0.69334 -1.0133,-0.32 -2.32,-0.64 -1.44,-0.34666 -2.5333,-0.74666 -1.0934,-0.4 -1.84,-0.96 -0.72,-0.56 -1.0934,-1.36 -0.3733,-0.8 -0.3733,-1.92 0,-1.36 0.5067,-2.4 0.5066,-1.04 1.4133,-1.76 0.9067,-0.72 2.16,-1.06667 1.2533,-0.37333 2.72,-0.37333 1.92,0 3.4667,0.58666 1.5466,0.58667 2.7466,1.57334 z m -31.4262,18.74667 q 0.3467,0.0533 0.6933,0.08 0.3467,0.0267 0.5334,0.0267 0.32,0 0.56,-0.16 0.2666,-0.13334 0.5066,-0.56 0.2667,-0.42667 0.5867,-1.2 0.32,-0.74667 0.8,-1.97334 l -5.8933,-13.92 h 2.4266 l 4.7467,11.81334 4.32,-11.81334 h 2.24 l -6.7733,17.57334 q -0.3734,0.93333 -1.2534,1.62666 -0.8533,0.72 -2.3733,0.72 -0.24,0 -0.5067,-0.0267 -0.24,-0.0267 -0.6133,-0.10667 z m -2.9675,-15.65333 q -1.76,0.0533 -3.12,0.90666 -1.3333,0.85334 -1.8933,2.37334 v 8.58666 h -2.3467 v -13.92 h 2.1867 v 3.22667 q 0.72,-1.44 1.8933,-2.32 1.1733,-0.90667 2.5067,-1.01333 0.2666,0 0.4533,0 0.1867,0 0.32,0.0267 z m -7.5521,-4.93334 h -6.5333 v 16.8 h -2.4 v -16.8 h -6.5334 v -2.13333 h 15.4667 z" />
    </g>
    <g
       id="g929"
       transform="matrix(0.78115867,0,0,0.78115867,-9.2135058,50.620259)">
      <g
         id="g480"
         transform="matrix(1.1501887,0,0,1.1501887,-8.8435203,-14.578998)">
        <rect
           style="opacity:1;fill:#ffffff;fill-opacity:0.01507538;stroke:#000000;stroke-width:9.44600105;stroke-linecap:round;stroke-linejoin:miter;stroke-miterlimit:4;stroke-dasharray:none;stroke-dashoffset:0;stroke-opacity:1;paint-order:stroke fill markers"
           id="rect10"
           width="122.86501"
           height="239.68462"
           x="30.688951"
           y="34.850662"
           ry="14.407272" />
        <rect
           style="opacity:1;fill:#000000;fill-opacity:1;stroke:#000000;stroke-width:0.42502582;stroke-linecap:round;stroke-linejoin:miter;stroke-miterlimit:4;stroke-dasharray:none;stroke-dashoffset:0;stroke-opacity:1;paint-order:stroke fill markers"
           id="rect817"
           width="56.795273"
           height="13.879512"
           x="65.098763"
           y="31.247501"
           ry="6.9397559" />
        <rect
           style="opacity:1;fill:#000000;fill-opacity:1;stroke:#000000;stroke-width:0.33207566;stroke-linecap:round;stroke-linejoin:miter;stroke-miterlimit:4;stroke-dasharray:none;stroke-dashoffset:0;stroke-opacity:1;paint-order:stroke fill markers"
           id="rect817-8"
           width="56.744194"
           height="8.4802456"
           x="63.829903"
           y="-160.74728"
           ry="4.2401228"
           transform="matrix(2.6350173e-4,0.99999997,-0.9999999,4.4161339e-4,0,0)" />
        <rect
           style="opacity:1;fill:#000000;fill-opacity:1;stroke:#000000;stroke-width:0.26589587;stroke-linecap:round;stroke-linejoin:miter;stroke-miterlimit:4;stroke-dasharray:none;stroke-dashoffset:0;stroke-opacity:1;paint-order:stroke fill markers"
           id="rect817-8-4"
           width="36.380657"
           height="8.4802446"
           x="97.324585"
           y="-32.220757"
           ry="4.2401223"
           transform="matrix(4.1099317e-4,0.99999992,-0.99999996,2.8313327e-4,0,0)" />
      </g>
    </g>
    <g
       id="g887"
       transform="translate(0,37.041668)">
      <g
         transform="matrix(1.0500861,0,0,1.0500861,-9.3569793,-7.3804609)"
         style="fill:#ff2a2a;stroke:#ff2a2a"
         id="g1618">
        <rect
           y="-153.77963"
           x="101.14529"
           height="32.59528"
           width="72.147072"
           id="rect815-9"
           style="opacity:1;fill:#ff2a2a;fill-opacity:1;fill-rule:nonzero;stroke:#ff2a2a;stroke-width:0.45367363;stroke-linecap:round;stroke-linejoin:miter;stroke-miterlimit:4;stroke-dasharray:none;stroke-dashoffset:0;stroke-opacity:1;paint-order:stroke fill markers"
           transform="scale(1,-1)" />
        <rect
           ry="20.241667"
           y="-153.63318"
           x="101.24377"
           height="53.582073"
           width="102.66276"
           id="rect815"
           style="opacity:1;fill:#ff2a2a;fill-opacity:1;fill-rule:nonzero;stroke:#ff2a2a;stroke-width:0.69386196;stroke-linecap:round;stroke-linejoin:miter;stroke-miterlimit:4;stroke-dasharray:none;stroke-dashoffset:0;stroke-opacity:1;paint-order:stroke fill markers"
           transform="scale(1,-1)" />
      </g>
      <g
         id="flowRoot377-2-1"
         style="font-style:normal;font-variant:normal;font-weight:normal;font-stretch:normal;font-size:8px;line-height:1.25;font-family:'Reem Kufi';-inkscape-font-specification:'Reem Kufi';letter-spacing:0px;word-spacing:0px;fill:#ffffff;fill-opacity:1;stroke:none"
         transform="matrix(0.34443578,0,0,0.34443578,-283.49523,-45.937872)"
         aria-label="What if they make you agree on something you disagree?">
        <path
           d="m 1383.7671,550.58552 q 0,-1.44 0.5066,-2.50667 0.5067,-1.09333 1.7334,-1.86667 0.48,-0.32 1.0933,-0.66666 0.64,-0.34667 1.2,-0.8 0.56,-0.48 0.9333,-1.12 0.4,-0.66667 0.4,-1.57334 0,-0.74666 -0.2933,-1.30666 -0.2667,-0.58667 -0.72,-0.96 -0.4533,-0.4 -1.04,-0.58667 -0.5867,-0.21333 -1.2267,-0.21333 -0.6666,0 -1.28,0.21333 -0.5866,0.18667 -1.0933,0.53333 -0.5067,0.34667 -0.9067,0.82667 -0.4,0.45333 -0.6666,0.96 l -1.5734,-1.04 q 0.3467,-0.82667 0.9334,-1.46667 0.5866,-0.64 1.3333,-1.06666 0.7467,-0.45334 1.5733,-0.66667 0.8534,-0.24 1.7334,-0.24 0.9866,0 1.9466,0.32 0.96,0.29333 1.7067,0.93333 0.7467,0.64 1.2,1.6 0.4533,0.96 0.4533,2.26667 0,1.01333 -0.2933,1.73333 -0.2667,0.72 -0.72,1.25334 -0.4533,0.53333 -1.0667,0.93333 -0.6133,0.4 -1.28,0.77333 -0.48,0.26667 -0.96,0.56 -0.48,0.29334 -0.8533,0.72 -0.3467,0.4 -0.5867,0.98667 -0.2133,0.58667 -0.2133,1.46667 z m 0.053,5.62666 v -3.09333 h 1.9733 v 3.09333 z m -11.2564,0.26667 q -1.5733,0 -2.88,-0.56 -1.3066,-0.58667 -2.24,-1.57333 -0.9333,-0.98667 -1.4666,-2.29334 -0.5067,-1.33333 -0.5067,-2.8 0,-1.46666 0.5067,-2.77333 0.5333,-1.30667 1.4666,-2.29333 0.96,-0.98667 2.2667,-1.54667 1.3067,-0.58667 2.88,-0.58667 1.5733,0 2.8533,0.58667 1.3067,0.58667 2.2134,1.57333 0.9066,0.96 1.3866,2.26667 0.5067,1.28 0.5067,2.66667 0,0.29333 -0.027,0.53333 0,0.24 -0.027,0.37333 h -11.5467 q 0.08,1.04 0.48,1.89334 0.4,0.85333 1.04,1.46666 0.64,0.61334 1.44,0.96 0.8267,0.34667 1.7333,0.34667 0.64,0 1.2534,-0.16 0.6133,-0.18667 1.1466,-0.48 0.5334,-0.29333 0.9334,-0.72 0.4266,-0.42667 0.64,-0.96 l 2.0266,0.56 q -0.3466,0.77333 -0.96,1.41333 -0.5866,0.64 -1.3866,1.12 -0.7734,0.45334 -1.7334,0.72 -0.96,0.26667 -2,0.26667 z m 4.7734,-8.16 q -0.08,-0.98667 -0.5067,-1.81333 -0.4,-0.85334 -1.04,-1.44 -0.6133,-0.58667 -1.44,-0.90667 -0.8267,-0.34667 -1.76,-0.34667 -0.9333,0 -1.76,0.34667 -0.8267,0.32 -1.4667,0.93333 -0.6133,0.58667 -1.0133,1.41334 -0.3733,0.82666 -0.4533,1.81333 z m -20.5546,8.16 q -1.5733,0 -2.88,-0.56 -1.3067,-0.58667 -2.24,-1.57333 -0.9333,-0.98667 -1.4667,-2.29334 -0.5066,-1.33333 -0.5066,-2.8 0,-1.46666 0.5066,-2.77333 0.5334,-1.30667 1.4667,-2.29333 0.96,-0.98667 2.2667,-1.54667 1.3066,-0.58667 2.88,-0.58667 1.5733,0 2.8533,0.58667 1.3067,0.58667 2.2133,1.57333 0.9067,0.96 1.3867,2.26667 0.5067,1.28 0.5067,2.66667 0,0.29333 -0.027,0.53333 0,0.24 -0.027,0.37333 h -11.5466 q 0.08,1.04 0.48,1.89334 0.4,0.85333 1.04,1.46666 0.64,0.61334 1.44,0.96 0.8266,0.34667 1.7333,0.34667 0.64,0 1.2533,-0.16 0.6134,-0.18667 1.1467,-0.48 0.5333,-0.29333 0.9333,-0.72 0.4267,-0.42667 0.64,-0.96 l 2.0267,0.56 q -0.3467,0.77333 -0.96,1.41333 -0.5867,0.64 -1.3867,1.12 -0.7733,0.45334 -1.7333,0.72 -0.96,0.26667 -2,0.26667 z m 4.7733,-8.16 q -0.08,-0.98667 -0.5066,-1.81333 -0.4,-0.85334 -1.04,-1.44 -0.6134,-0.58667 -1.44,-0.90667 -0.8267,-0.34667 -1.76,-0.34667 -0.9334,0 -1.76,0.34667 -0.8267,0.32 -1.4667,0.93333 -0.6133,0.58667 -1.0133,1.41334 -0.3734,0.82666 -0.4534,1.81333 z m -12.9483,-3.97333 q -1.76,0.0533 -3.12,0.90666 -1.3333,0.85334 -1.8933,2.37334 v 8.58666 h -2.3467 v -13.92 h 2.1867 v 3.22667 q 0.72,-1.44 1.8933,-2.32 1.1733,-0.90667 2.5067,-1.01333 0.2666,0 0.4533,0 0.1867,0 0.32,0.0267 z m -18.4279,12.02666 q -1.4134,0 -2.6134,-0.58666 -1.1733,-0.58667 -2.0266,-1.57334 -0.8534,-0.98666 -1.3334,-2.26666 -0.4533,-1.28 -0.4533,-2.66667 0,-1.46667 0.4533,-2.77333 0.48,-1.33334 1.3334,-2.32 0.8533,-0.98667 2.0266,-1.54667 1.2,-0.58667 2.64,-0.58667 1.76,0 3.04,0.85334 1.28,0.85333 2.16,2.16 v -2.77334 h 2.08 v 13.76 q 0,1.49334 -0.56,2.61334 -0.56,1.14666 -1.52,1.92 -0.96,0.77333 -2.2666,1.17333 -1.28,0.4 -2.7467,0.4 -2.3733,0 -3.8667,-0.82667 -1.4666,-0.8 -2.4533,-2.24 l 1.36,-1.2 q 0.8267,1.22667 2.1333,1.84 1.3067,0.61334 2.8267,0.61334 0.96,0 1.8133,-0.26667 0.88,-0.26667 1.52,-0.8 0.64,-0.53333 1.0134,-1.33333 0.4,-0.8 0.4,-1.89334 v -2.45333 q -0.4,0.64 -0.96,1.17333 -0.5334,0.50667 -1.1734,0.88 -0.64,0.34667 -1.36,0.53334 -0.72,0.18666 -1.4666,0.18666 z m 0.72,-1.92 q 0.7466,0 1.44,-0.26666 0.6933,-0.26667 1.28,-0.69334 0.5866,-0.45333 0.9866,-1.01333 0.4,-0.56 0.5334,-1.14667 v -4 q -0.2934,-0.72 -0.7734,-1.30666 -0.4533,-0.58667 -1.04,-1.01334 -0.5866,-0.45333 -1.28,-0.69333 -0.6666,-0.24 -1.36,-0.24 -1.0666,0 -1.92,0.45333 -0.8266,0.45334 -1.4133,1.2 -0.5867,0.74667 -0.9067,1.70667 -0.32,0.93333 -0.32,1.89333 0,1.04 0.3734,1.97334 0.3733,0.93333 1.0133,1.62666 0.64,0.69334 1.4933,1.12 0.88,0.4 1.8934,0.4 z m -17.485,2.02667 q -0.9867,0 -1.84,-0.32 -0.8534,-0.34667 -1.4934,-0.93333 -0.6133,-0.58667 -0.9866,-1.36 -0.3467,-0.8 -0.3467,-1.73334 0,-0.96 0.4267,-1.73333 0.4266,-0.8 1.2,-1.36 0.8,-0.56 1.8666,-0.88 1.0934,-0.32 2.3734,-0.32 1.0133,0 2.0533,0.18667 1.04,0.18666 1.84,0.50666 v -1.12 q 0,-1.70666 -0.96,-2.66666 -0.96,-0.98667 -2.72,-0.98667 -2.1067,0 -4.4267,1.62667 l -0.7733,-1.52 q 2.6933,-1.81334 5.4133,-1.81334 2.7467,0 4.2667,1.46667 1.5467,1.46667 1.5467,4.13333 v 5.68 q 0,0.82667 0.7466,0.85334 v 2.02666 q -0.3733,0.0533 -0.6133,0.08 -0.24,0.0267 -0.5067,0.0267 -0.6933,0 -1.12,-0.4 -0.4,-0.42667 -0.48,-1.01333 l -0.053,-0.98667 q -0.9333,1.25333 -2.3733,1.92 -1.4134,0.64 -3.04,0.64 z m 0.6133,-1.76 q 1.2533,0 2.32,-0.45333 1.0933,-0.48 1.6533,-1.25334 0.5067,-0.50666 0.5067,-1.04 v -2.05333 q -1.7067,-0.66667 -3.5467,-0.66667 -1.76,0 -2.88,0.74667 -1.0933,0.74667 -1.0933,1.94667 0,0.58666 0.2133,1.09333 0.24,0.50667 0.64,0.88 0.4267,0.37333 0.9867,0.58667 0.56,0.21333 1.2,0.21333 z m -12.4837,1.76 q -1.68,0 -3.3067,-0.50667 -1.6267,-0.53333 -2.8,-1.52 l 1.0133,-1.57333 q 1.2267,0.93333 2.4534,1.41333 1.2266,0.45334 2.5866,0.45334 1.52,0 2.4,-0.58667 0.9067,-0.61333 0.9067,-1.70667 0,-0.50666 -0.24,-0.85333 -0.24,-0.37333 -0.72,-0.64 -0.48,-0.26667 -1.2267,-0.48 -0.7466,-0.21333 -1.7333,-0.45333 -1.2533,-0.32 -2.16,-0.61334 -0.9067,-0.29333 -1.4933,-0.69333 -0.5867,-0.4 -0.8534,-0.96 -0.2666,-0.56 -0.2666,-1.38667 0,-1.04 0.4,-1.84 0.4266,-0.82666 1.1466,-1.36 0.72,-0.56 1.68,-0.82666 0.9867,-0.29334 2.1067,-0.29334 1.5733,0 2.9333,0.50667 1.36,0.50667 2.2934,1.33333 l -1.0667,1.41334 q -0.88,-0.77334 -1.9733,-1.14667 -1.0934,-0.4 -2.24,-0.4 -1.28,0 -2.1867,0.56 -0.88,0.53333 -0.88,1.73333 0,0.48 0.16,0.8 0.1867,0.32 0.5867,0.56 0.4,0.24 1.0133,0.42667 0.64,0.18667 1.52,0.4 1.3867,0.32 2.4,0.66667 1.04,0.32 1.7067,0.77333 0.6933,0.45333 1.0133,1.06667 0.3467,0.61333 0.3467,1.49333 0,1.94667 -1.4934,3.09333 -1.4933,1.14667 -4.0266,1.14667 z m -11.0259,-0.26667 v -13.92 h 2.3467 v 13.92 z m 0,-16.53333 v -2.93333 h 2.3467 v 2.93333 z m -11.0375,16.8 q -1.44,0 -2.6666,-0.58667 -1.2267,-0.58666 -2.1067,-1.57333 -0.88,-0.98667 -1.3867,-2.29333 -0.48,-1.30667 -0.48,-2.74667 0,-1.46667 0.4534,-2.77333 0.48,-1.33334 1.3066,-2.32 0.8534,-0.98667 2,-1.54667 1.1734,-0.58667 2.56,-0.58667 1.68,0 2.9867,0.88 1.3333,0.88 2.1067,2.13334 v -8.32 h 2.3466 v 16.58666 q 0,0.82667 0.7467,0.85334 v 2.02666 q -0.3733,0.0533 -0.6133,0.08 -0.2134,0.0267 -0.4267,0.0267 -0.6933,0 -1.2267,-0.45333 -0.5066,-0.48 -0.5066,-1.09334 v -1.17333 q -0.8267,1.36 -2.2134,2.13333 -1.36,0.74667 -2.88,0.74667 z m 0.56,-2.02667 q 0.64,0 1.3067,-0.24 0.6933,-0.24 1.28,-0.66666 0.6133,-0.42667 1.04,-0.98667 0.4533,-0.58667 0.5867,-1.22667 v -4 q -0.24,-0.66666 -0.72,-1.25333 -0.48,-0.61333 -1.0934,-1.04 -0.5866,-0.45333 -1.28,-0.69333 -0.6666,-0.26667 -1.3333,-0.26667 -1.04,0 -1.8933,0.45333 -0.8267,0.42667 -1.44,1.17334 -0.5867,0.72 -0.9067,1.68 -0.32,0.93333 -0.32,1.92 0,1.04 0.3733,2 0.3734,0.93333 1.0134,1.62666 0.64,0.69334 1.4933,1.12 0.88,0.4 1.8933,0.4 z m 102.7917,-31.30664 q -2.1867,0 -3.3067,-1.46667 -1.12,-1.46667 -1.12,-4.37333 v -8.34667 h 2.3467 v 7.89333 q 0,4.26667 2.96,4.26667 1.44,0 2.6933,-0.90667 1.28,-0.93333 1.8934,-2.53333 v -8.72 h 2.3466 v 11.04 q 0,0.82667 0.7467,0.85333 v 2.02667 q -0.4,0.0533 -0.64,0.0533 -0.2133,0.0267 -0.4267,0.0267 -0.6933,0 -1.1733,-0.4 -0.4533,-0.42667 -0.48,-1.04 l -0.053,-1.62667 q -0.9334,1.57334 -2.4534,2.42667 -1.52,0.82667 -3.3333,0.82667 z m -14.2029,0 q -1.5734,0 -2.88,-0.58667 -1.28,-0.58667 -2.2134,-1.57333 -0.9066,-0.98667 -1.4133,-2.29334 -0.5067,-1.30666 -0.5067,-2.74666 0,-1.46667 0.5067,-2.77334 0.5333,-1.30666 1.44,-2.29333 0.9333,-0.98667 2.2133,-1.57333 1.3067,-0.58667 2.8534,-0.58667 1.5466,0 2.8533,0.58667 1.3067,0.58666 2.2133,1.57333 0.9334,0.98667 1.44,2.29333 0.5334,1.30667 0.5334,2.77334 0,1.44 -0.5067,2.74666 -0.5067,1.30667 -1.44,2.29334 -0.9333,0.98666 -2.24,1.57333 -1.28,0.58667 -2.8533,0.58667 z m -4.6134,-7.17334 q 0,1.09334 0.3467,2.02667 0.3733,0.93333 0.9867,1.62667 0.64,0.69333 1.4666,1.09333 0.8534,0.4 1.8134,0.4 0.96,0 1.7866,-0.4 0.8534,-0.4 1.4934,-1.09333 0.64,-0.72 0.9866,-1.65334 0.3734,-0.96 0.3734,-2.05333 0,-1.06667 -0.3734,-2 -0.3466,-0.96 -0.9866,-1.65333 -0.64,-0.72 -1.4934,-1.12 -0.8266,-0.4 -1.7866,-0.4 -0.96,0 -1.8134,0.42666 -0.8266,0.4 -1.4666,1.12 -0.6134,0.69334 -0.9867,1.65334 -0.3467,0.93333 -0.3467,2.02666 z m -14.837,10.69334 q 0.3466,0.0533 0.6933,0.08 0.3467,0.0267 0.5333,0.0267 0.32,0 0.56,-0.16 0.2667,-0.13333 0.5067,-0.56 0.2667,-0.42666 0.5867,-1.2 0.32,-0.74666 0.8,-1.97333 l -5.8934,-13.92 h 2.4267 l 4.7467,11.81333 4.32,-11.81333 h 2.24 l -6.7734,17.57333 q -0.3733,0.93334 -1.2533,1.62667 -0.8533,0.72 -2.3733,0.72 -0.24,0 -0.5067,-0.0267 -0.24,-0.0267 -0.6133,-0.10666 z m -17.7496,-3.62667 q -1.4134,0 -2.6134,-0.58667 -1.1733,-0.58666 -2.0266,-1.57333 -0.8534,-0.98667 -1.3334,-2.26667 -0.4533,-1.28 -0.4533,-2.66666 0,-1.46667 0.4533,-2.77334 0.48,-1.33333 1.3334,-2.32 0.8533,-0.98666 2.0266,-1.54666 1.2,-0.58667 2.64,-0.58667 1.76,0 3.04,0.85333 1.28,0.85334 2.16,2.16 v -2.77333 h 2.08 v 13.76 q 0,1.49333 -0.56,2.61333 -0.56,1.14667 -1.52,1.92 -0.96,0.77334 -2.2666,1.17334 -1.28,0.4 -2.7467,0.4 -2.3733,0 -3.8667,-0.82667 -1.4666,-0.8 -2.4533,-2.24 l 1.36,-1.2 q 0.8267,1.22667 2.1333,1.84 1.3067,0.61333 2.8267,0.61333 0.96,0 1.8133,-0.26666 0.88,-0.26667 1.52,-0.8 0.64,-0.53334 1.0134,-1.33334 0.4,-0.8 0.4,-1.89333 v -2.45333 q -0.4,0.64 -0.96,1.17333 -0.5334,0.50667 -1.1734,0.88 -0.64,0.34667 -1.36,0.53333 -0.72,0.18667 -1.4666,0.18667 z m 0.72,-1.92 q 0.7466,0 1.44,-0.26667 0.6933,-0.26666 1.28,-0.69333 0.5866,-0.45333 0.9866,-1.01333 0.4,-0.56 0.5334,-1.14667 v -4 q -0.2934,-0.72 -0.7734,-1.30667 -0.4533,-0.58666 -1.04,-1.01333 -0.5866,-0.45333 -1.28,-0.69333 -0.6666,-0.24 -1.36,-0.24 -1.0666,0 -1.92,0.45333 -0.8266,0.45333 -1.4133,1.2 -0.5867,0.74667 -0.9067,1.70667 -0.32,0.93333 -0.32,1.89333 0,1.04 0.3734,1.97333 0.3733,0.93334 1.0133,1.62667 0.64,0.69333 1.4933,1.12 0.88,0.4 1.8934,0.4 z m -9.9159,1.76 h -2.3466 v -7.78667 q 0,-2.24 -0.6934,-3.25333 -0.6666,-1.01333 -2.0533,-1.01333 -0.72,0 -1.44,0.29333 -0.72,0.26667 -1.36,0.74667 -0.64,0.48 -1.12,1.14666 -0.48,0.66667 -0.72,1.46667 v 8.4 h -2.3467 v -13.92 h 2.1334 v 2.98667 q 0.8266,-1.46667 2.3733,-2.34667 1.5733,-0.88 3.4133,-0.88 1.2,0 2,0.45333 0.8,0.42667 1.28,1.22667 0.48,0.77333 0.6667,1.84 0.2133,1.06667 0.2133,2.32 z m -18.2258,0 v -13.92 h 2.3467 v 13.92 z m 0,-16.53333 v -2.93334 h 2.3467 v 2.93334 z m -3.6492,16.53333 h -2.3466 v -7.78667 q 0,-2.16 -0.7467,-3.2 -0.7467,-1.06666 -2.1867,-1.06666 -0.6933,0 -1.3866,0.29333 -0.6934,0.26667 -1.3067,0.74667 -0.5867,0.48 -1.0667,1.14666 -0.4533,0.66667 -0.6933,1.46667 v 8.4 h -2.3467 V 503.4122 h 2.3467 v 8.53334 q 0.8267,-1.52 2.24,-2.37334 1.4133,-0.85333 3.0933,-0.85333 1.2267,0 2.08,0.45333 0.8534,0.45334 1.36,1.22667 0.5067,0.77333 0.72,1.86667 0.24,1.06666 0.24,2.29333 z m -14.255,-0.69333 q -0.2133,0.10666 -0.56,0.26666 -0.3466,0.13334 -0.8,0.29334 -0.4266,0.13333 -0.96,0.21333 -0.5066,0.10667 -1.0666,0.10667 -1.28,0 -2.2134,-0.69334 -0.9333,-0.72 -0.9333,-2.21333 v -9.36 h -1.8933 v -1.84 h 1.8933 v -4.64 h 2.3467 v 4.64 h 3.12 v 1.84 h -3.12 v 8.64 q 0.053,0.77333 0.5066,1.12 0.4534,0.34667 1.0667,0.34667 0.6933,0 1.2533,-0.21334 0.5867,-0.24 0.8,-0.37333 z m -16.665,0.96 q -1.5733,0 -2.88,-0.56 -1.3066,-0.58667 -2.24,-1.57334 -0.9333,-0.98666 -1.4666,-2.29333 -0.5067,-1.33333 -0.5067,-2.8 0,-1.46667 0.5067,-2.77333 0.5333,-1.30667 1.4666,-2.29334 0.96,-0.98666 2.2667,-1.54666 1.3067,-0.58667 2.88,-0.58667 1.5733,0 2.8533,0.58667 1.3067,0.58666 2.2134,1.57333 0.9066,0.96 1.3866,2.26667 0.5067,1.28 0.5067,2.66666 0,0.29334 -0.027,0.53334 0,0.24 -0.027,0.37333 h -11.5467 q 0.08,1.04 0.48,1.89333 0.4,0.85334 1.04,1.46667 0.64,0.61333 1.44,0.96 0.8267,0.34667 1.7333,0.34667 0.64,0 1.2534,-0.16 0.6133,-0.18667 1.1466,-0.48 0.5334,-0.29334 0.9334,-0.72 0.4266,-0.42667 0.64,-0.96 l 2.0266,0.56 q -0.3466,0.77333 -0.96,1.41333 -0.5866,0.64 -1.3866,1.12 -0.7734,0.45333 -1.7334,0.72 -0.96,0.26667 -2,0.26667 z m 4.7734,-8.16 q -0.08,-0.98667 -0.5067,-1.81334 -0.4,-0.85333 -1.04,-1.44 -0.6133,-0.58666 -1.44,-0.90666 -0.8267,-0.34667 -1.76,-0.34667 -0.9333,0 -1.76,0.34667 -0.8267,0.32 -1.4667,0.93333 -0.6133,0.58667 -1.0133,1.41333 -0.3733,0.82667 -0.4533,1.81334 z m -14.5821,7.89333 h -2.3467 v -7.78667 q 0,-2.18666 -0.72,-3.22666 -0.6933,-1.04 -2.08,-1.04 -1.44,0 -2.5866,1.04 -1.12,1.01333 -1.6,2.64 v 8.37333 h -2.3467 v -7.78667 q 0,-2.24 -0.6933,-3.25333 -0.6934,-1.01333 -2.08,-1.01333 -1.4134,0 -2.56,1.01333 -1.1467,0.98667 -1.6267,2.64 v 8.4 h -2.3467 v -13.92 h 2.1334 v 2.98667 q 0.8533,-1.54667 2.2133,-2.37334 1.36,-0.85333 3.0667,-0.85333 1.76,0 2.7733,0.96 1.04,0.93333 1.28,2.42667 1.8667,-3.38667 5.3067,-3.38667 1.2,0 2,0.45333 0.8266,0.42667 1.3066,1.22667 0.48,0.77333 0.6934,1.84 0.2133,1.06667 0.2133,2.32 z m -30.8963,0.26667 q -1.5733,0 -2.88,-0.58667 -1.28,-0.58667 -2.2133,-1.57333 -0.9067,-0.98667 -1.4133,-2.29334 -0.5067,-1.30666 -0.5067,-2.74666 0,-1.46667 0.5067,-2.77334 0.5333,-1.30666 1.44,-2.29333 0.9333,-0.98667 2.2133,-1.57333 1.3067,-0.58667 2.8533,-0.58667 1.5467,0 2.8534,0.58667 1.3066,0.58666 2.2133,1.57333 0.9333,0.98667 1.44,2.29333 0.5333,1.30667 0.5333,2.77334 0,1.44 -0.5066,2.74666 -0.5067,1.30667 -1.44,2.29334 -0.9334,0.98666 -2.24,1.57333 -1.28,0.58667 -2.8534,0.58667 z m -4.6133,-7.17334 q 0,1.09334 0.3467,2.02667 0.3733,0.93333 0.9866,1.62667 0.64,0.69333 1.4667,1.09333 0.8533,0.4 1.8133,0.4 0.96,0 1.7867,-0.4 0.8533,-0.4 1.4933,-1.09333 0.64,-0.72 0.9867,-1.65334 0.3733,-0.96 0.3733,-2.05333 0,-1.06667 -0.3733,-2 -0.3467,-0.96 -0.9867,-1.65333 -0.64,-0.72 -1.4933,-1.12 -0.8267,-0.4 -1.7867,-0.4 -0.96,0 -1.8133,0.42666 -0.8267,0.4 -1.4667,1.12 -0.6133,0.69334 -0.9866,1.65334 -0.3467,0.93333 -0.3467,2.02666 z m -9.7637,7.17334 q -1.68,0 -3.3067,-0.50667 -1.6267,-0.53333 -2.8,-1.52 l 1.0133,-1.57333 q 1.2267,0.93333 2.4534,1.41333 1.2266,0.45333 2.5866,0.45333 1.52,0 2.4,-0.58666 0.9067,-0.61334 0.9067,-1.70667 0,-0.50667 -0.24,-0.85333 -0.24,-0.37334 -0.72,-0.64 -0.48,-0.26667 -1.2267,-0.48 -0.7466,-0.21334 -1.7333,-0.45334 -1.2533,-0.32 -2.16,-0.61333 -0.9067,-0.29333 -1.4933,-0.69333 -0.5867,-0.4 -0.8534,-0.96 -0.2666,-0.56 -0.2666,-1.38667 0,-1.04 0.4,-1.84 0.4266,-0.82667 1.1466,-1.36 0.72,-0.56 1.68,-0.82667 0.9867,-0.29333 2.1067,-0.29333 1.5733,0 2.9333,0.50667 1.36,0.50666 2.2934,1.33333 l -1.0667,1.41333 q -0.88,-0.77333 -1.9733,-1.14666 -1.0934,-0.4 -2.24,-0.4 -1.28,0 -2.1867,0.56 -0.88,0.53333 -0.88,1.73333 0,0.48 0.16,0.8 0.1867,0.32 0.5867,0.56 0.4,0.24 1.0133,0.42667 0.64,0.18666 1.52,0.4 1.3867,0.32 2.4,0.66666 1.04,0.32 1.7067,0.77334 0.6933,0.45333 1.0133,1.06666 0.3467,0.61334 0.3467,1.49334 0,1.94666 -1.4934,3.09333 -1.4933,1.14667 -4.0266,1.14667 z m 176.575,-33.60001 h -2.3467 v -7.78667 q 0,-2.24 -0.6933,-3.25333 -0.6667,-1.01334 -2.0534,-1.01334 -0.72,0 -1.44,0.29334 -0.72,0.26666 -1.36,0.74666 -0.64,0.48 -1.12,1.14667 -0.48,0.66667 -0.72,1.46667 v 8.4 h -2.3466 v -13.92 h 2.1333 v 2.98666 q 0.8267,-1.46666 2.3733,-2.34666 1.5734,-0.88 3.4134,-0.88 1.2,0 2,0.45333 0.8,0.42667 1.28,1.22667 0.48,0.77333 0.6666,1.84 0.2134,1.06666 0.2134,2.32 z m -21.9896,0.26666 q -1.5733,0 -2.88,-0.58666 -1.28,-0.58667 -2.2133,-1.57334 -0.9067,-0.98666 -1.4134,-2.29333 -0.5066,-1.30667 -0.5066,-2.74667 0,-1.46666 0.5066,-2.77333 0.5334,-1.30667 1.44,-2.29333 0.9334,-0.98667 2.2134,-1.57334 1.3066,-0.58666 2.8533,-0.58666 1.5467,0 2.8533,0.58666 1.3067,0.58667 2.2134,1.57334 0.9333,0.98666 1.44,2.29333 0.5333,1.30667 0.5333,2.77333 0,1.44 -0.5067,2.74667 -0.5066,1.30667 -1.44,2.29333 -0.9333,0.98667 -2.24,1.57334 -1.28,0.58666 -2.8533,0.58666 z m -4.6133,-7.17333 q 0,1.09333 0.3466,2.02667 0.3734,0.93333 0.9867,1.62666 0.64,0.69334 1.4667,1.09334 0.8533,0.4 1.8133,0.4 0.96,0 1.7867,-0.4 0.8533,-0.4 1.4933,-1.09334 0.64,-0.72 0.9867,-1.65333 0.3733,-0.96 0.3733,-2.05333 0,-1.06667 -0.3733,-2 -0.3467,-0.96 -0.9867,-1.65334 -0.64,-0.72 -1.4933,-1.12 -0.8267,-0.4 -1.7867,-0.4 -0.96,0 -1.8133,0.42667 -0.8267,0.4 -1.4667,1.12 -0.6133,0.69333 -0.9867,1.65333 -0.3466,0.93334 -0.3466,2.02667 z m -17.8588,7.17333 q -1.5733,0 -2.88,-0.56 -1.3067,-0.58666 -2.24,-1.57333 -0.9333,-0.98667 -1.4667,-2.29333 -0.5066,-1.33334 -0.5066,-2.8 0,-1.46667 0.5066,-2.77334 0.5334,-1.30666 1.4667,-2.29333 0.96,-0.98667 2.2667,-1.54667 1.3066,-0.58666 2.88,-0.58666 1.5733,0 2.8533,0.58666 1.3067,0.58667 2.2133,1.57334 0.9067,0.96 1.3867,2.26666 0.5067,1.28 0.5067,2.66667 0,0.29333 -0.027,0.53333 0,0.24 -0.027,0.37334 h -11.5466 q 0.08,1.04 0.48,1.89333 0.4,0.85333 1.04,1.46667 0.64,0.61333 1.44,0.96 0.8266,0.34666 1.7333,0.34666 0.64,0 1.2533,-0.16 0.6134,-0.18666 1.1467,-0.48 0.5333,-0.29333 0.9333,-0.72 0.4267,-0.42666 0.64,-0.96 l 2.0267,0.56 q -0.3467,0.77334 -0.96,1.41334 -0.5867,0.64 -1.3867,1.12 -0.7733,0.45333 -1.7333,0.72 -0.96,0.26666 -2,0.26666 z m 4.7733,-8.16 q -0.08,-0.98666 -0.5066,-1.81333 -0.4,-0.85333 -1.04,-1.44 -0.6134,-0.58667 -1.44,-0.90667 -0.8267,-0.34666 -1.76,-0.34666 -0.9334,0 -1.76,0.34666 -0.8267,0.32 -1.4667,0.93334 -0.6133,0.58666 -1.0133,1.41333 -0.3734,0.82667 -0.4534,1.81333 z m -20.5546,8.16 q -1.5733,0 -2.88,-0.56 -1.3066,-0.58666 -2.24,-1.57333 -0.9333,-0.98667 -1.4666,-2.29333 -0.5067,-1.33334 -0.5067,-2.8 0,-1.46667 0.5067,-2.77334 0.5333,-1.30666 1.4666,-2.29333 0.96,-0.98667 2.2667,-1.54667 1.3067,-0.58666 2.88,-0.58666 1.5733,0 2.8533,0.58666 1.3067,0.58667 2.2134,1.57334 0.9066,0.96 1.3866,2.26666 0.5067,1.28 0.5067,2.66667 0,0.29333 -0.027,0.53333 0,0.24 -0.027,0.37334 h -11.5467 q 0.08,1.04 0.48,1.89333 0.4,0.85333 1.04,1.46667 0.64,0.61333 1.44,0.96 0.8267,0.34666 1.7333,0.34666 0.64,0 1.2534,-0.16 0.6133,-0.18666 1.1466,-0.48 0.5334,-0.29333 0.9334,-0.72 0.4266,-0.42666 0.64,-0.96 l 2.0266,0.56 q -0.3466,0.77334 -0.96,1.41334 -0.5866,0.64 -1.3866,1.12 -0.7734,0.45333 -1.7334,0.72 -0.96,0.26666 -2,0.26666 z m 4.7734,-8.16 q -0.08,-0.98666 -0.5067,-1.81333 -0.4,-0.85333 -1.04,-1.44 -0.6133,-0.58667 -1.44,-0.90667 -0.8267,-0.34666 -1.76,-0.34666 -0.9333,0 -1.76,0.34666 -0.8267,0.32 -1.4667,0.93334 -0.6133,0.58666 -1.0133,1.41333 -0.3733,0.82667 -0.4533,1.81333 z m -12.9484,-3.97333 q -1.76,0.0533 -3.12,0.90667 -1.3333,0.85333 -1.8933,2.37333 v 8.58667 h -2.3467 v -13.92 h 2.1867 v 3.22666 q 0.72,-1.44 1.8933,-2.32 1.1734,-0.90666 2.5067,-1.01333 0.2667,0 0.4533,0 0.1867,0 0.32,0.0267 z m -18.4279,12.02667 q -1.4133,0 -2.6133,-0.58667 -1.1733,-0.58667 -2.0267,-1.57333 -0.8533,-0.98667 -1.3333,-2.26667 -0.4533,-1.28 -0.4533,-2.66667 0,-1.46666 0.4533,-2.77333 0.48,-1.33333 1.3333,-2.32 0.8534,-0.98667 2.0267,-1.54667 1.2,-0.58666 2.64,-0.58666 1.76,0 3.04,0.85333 1.28,0.85333 2.16,2.16 v -2.77333 h 2.08 v 13.76 q 0,1.49333 -0.56,2.61333 -0.56,1.14667 -1.52,1.92 -0.96,0.77333 -2.2667,1.17333 -1.28,0.4 -2.7466,0.4 -2.3734,0 -3.8667,-0.82666 -1.4667,-0.8 -2.4533,-2.24 l 1.36,-1.2 q 0.8266,1.22666 2.1333,1.84 1.3067,0.61333 2.8267,0.61333 0.96,0 1.8133,-0.26667 0.88,-0.26666 1.52,-0.8 0.64,-0.53333 1.0133,-1.33333 0.4,-0.8 0.4,-1.89333 v -2.45334 q -0.4,0.64 -0.96,1.17334 -0.5333,0.50666 -1.1733,0.88 -0.64,0.34666 -1.36,0.53333 -0.72,0.18667 -1.4667,0.18667 z m 0.72,-1.92 q 0.7467,0 1.44,-0.26667 0.6934,-0.26667 1.28,-0.69333 0.5867,-0.45334 0.9867,-1.01334 0.4,-0.56 0.5333,-1.14666 v -4 q -0.2933,-0.72 -0.7733,-1.30667 -0.4533,-0.58667 -1.04,-1.01333 -0.5867,-0.45334 -1.28,-0.69334 -0.6667,-0.24 -1.36,-0.24 -1.0667,0 -1.92,0.45334 -0.8267,0.45333 -1.4133,1.2 -0.5867,0.74666 -0.9067,1.70666 -0.32,0.93334 -0.32,1.89334 0,1.04 0.3733,1.97333 0.3734,0.93333 1.0134,1.62667 0.64,0.69333 1.4933,1.12 0.88,0.4 1.8933,0.4 z m -17.485,2.02666 q -0.9866,0 -1.84,-0.32 -0.8533,-0.34666 -1.4933,-0.93333 -0.6133,-0.58667 -0.9867,-1.36 -0.3466,-0.8 -0.3466,-1.73333 0,-0.96 0.4266,-1.73334 0.4267,-0.8 1.2,-1.36 0.8,-0.56 1.8667,-0.88 1.0933,-0.32 2.3733,-0.32 1.0134,0 2.0534,0.18667 1.04,0.18667 1.84,0.50667 v -1.12 q 0,-1.70667 -0.96,-2.66667 -0.96,-0.98667 -2.72,-0.98667 -2.1067,0 -4.4267,1.62667 l -0.7733,-1.52 q 2.6933,-1.81333 5.4133,-1.81333 2.7467,0 4.2667,1.46666 1.5466,1.46667 1.5466,4.13334 v 5.68 q 0,0.82666 0.7467,0.85333 v 2.02667 q -0.3733,0.0533 -0.6133,0.08 -0.24,0.0267 -0.5067,0.0267 -0.6933,0 -1.12,-0.4 -0.4,-0.42666 -0.48,-1.01333 l -0.053,-0.98667 q -0.9334,1.25334 -2.3734,1.92 -1.4133,0.64 -3.04,0.64 z m 0.6134,-1.76 q 1.2533,0 2.32,-0.45333 1.0933,-0.48 1.6533,-1.25333 0.5067,-0.50667 0.5067,-1.04 v -2.05334 q -1.7067,-0.66666 -3.5467,-0.66666 -1.76,0 -2.88,0.74666 -1.0933,0.74667 -1.0933,1.94667 0,0.58667 0.2133,1.09333 0.24,0.50667 0.64,0.88 0.4267,0.37334 0.9867,0.58667 0.56,0.21333 1.2,0.21333 z m -22.7059,1.76 q -2.1866,0 -3.3066,-1.46666 -1.12,-1.46667 -1.12,-4.37334 v -8.34666 h 2.3466 v 7.89333 q 0,4.26667 2.96,4.26667 1.44,0 2.6934,-0.90667 1.28,-0.93333 1.8933,-2.53333 v -8.72 h 2.3467 v 11.04 q 0,0.82666 0.7466,0.85333 v 2.02667 q -0.4,0.0533 -0.64,0.0533 -0.2133,0.0267 -0.4266,0.0267 -0.6934,0 -1.1734,-0.4 -0.4533,-0.42667 -0.48,-1.04 l -0.053,-1.62667 q -0.9333,1.57333 -2.4533,2.42667 -1.52,0.82666 -3.3334,0.82666 z m -14.2029,0 q -1.5733,0 -2.88,-0.58666 -1.28,-0.58667 -2.2133,-1.57334 -0.9067,-0.98666 -1.4134,-2.29333 -0.5066,-1.30667 -0.5066,-2.74667 0,-1.46666 0.5066,-2.77333 0.5334,-1.30667 1.44,-2.29333 0.9334,-0.98667 2.2134,-1.57334 1.3066,-0.58666 2.8533,-0.58666 1.5467,0 2.8533,0.58666 1.3067,0.58667 2.2134,1.57334 0.9333,0.98666 1.44,2.29333 0.5333,1.30667 0.5333,2.77333 0,1.44 -0.5067,2.74667 -0.5066,1.30667 -1.44,2.29333 -0.9333,0.98667 -2.24,1.57334 -1.28,0.58666 -2.8533,0.58666 z m -4.6133,-7.17333 q 0,1.09333 0.3466,2.02667 0.3734,0.93333 0.9867,1.62666 0.64,0.69334 1.4667,1.09334 0.8533,0.4 1.8133,0.4 0.96,0 1.7867,-0.4 0.8533,-0.4 1.4933,-1.09334 0.64,-0.72 0.9867,-1.65333 0.3733,-0.96 0.3733,-2.05333 0,-1.06667 -0.3733,-2 -0.3467,-0.96 -0.9867,-1.65334 -0.64,-0.72 -1.4933,-1.12 -0.8267,-0.4 -1.7867,-0.4 -0.96,0 -1.8133,0.42667 -0.8267,0.4 -1.4667,1.12 -0.6133,0.69333 -0.9867,1.65333 -0.3466,0.93334 -0.3466,2.02667 z m -14.8371,10.69333 q 0.3467,0.0533 0.6933,0.08 0.3467,0.0267 0.5334,0.0267 0.32,0 0.56,-0.16 0.2666,-0.13333 0.5066,-0.56 0.2667,-0.42667 0.5867,-1.2 0.32,-0.74667 0.8,-1.97333 l -5.8933,-13.92 h 2.4266 l 4.7467,11.81333 4.32,-11.81333 h 2.24 l -6.7733,17.57333 q -0.3734,0.93333 -1.2534,1.62667 -0.8533,0.72 -2.3733,0.72 -0.24,0 -0.5067,-0.0267 -0.24,-0.0267 -0.6133,-0.10667 z m 153.3846,-36.85334 q -1.5734,0 -2.88,-0.56 -1.3067,-0.58667 -2.24,-1.57333 -0.9334,-0.98667 -1.4667,-2.29334 -0.5067,-1.33333 -0.5067,-2.8 0,-1.46666 0.5067,-2.77333 0.5333,-1.30667 1.4667,-2.29333 0.96,-0.98667 2.2666,-1.54667 1.3067,-0.58667 2.88,-0.58667 1.5734,0 2.8534,0.58667 1.3066,0.58667 2.2133,1.57333 0.9067,0.96 1.3867,2.26667 0.5066,1.28 0.5066,2.66667 0,0.29333 -0.027,0.53333 0,0.24 -0.027,0.37333 h -11.5467 q 0.08,1.04 0.48,1.89334 0.4,0.85333 1.04,1.46666 0.64,0.61334 1.44,0.96 0.8267,0.34667 1.7334,0.34667 0.64,0 1.2533,-0.16 0.6133,-0.18667 1.1467,-0.48 0.5333,-0.29333 0.9333,-0.72 0.4267,-0.42667 0.64,-0.96 l 2.0267,0.56 q -0.3467,0.77333 -0.96,1.41333 -0.5867,0.64 -1.3867,1.12 -0.7733,0.45334 -1.7333,0.72 -0.96,0.26667 -2,0.26667 z m 4.7733,-8.16 q -0.08,-0.98667 -0.5067,-1.81333 -0.4,-0.85334 -1.04,-1.44 -0.6133,-0.58667 -1.44,-0.90667 -0.8266,-0.34667 -1.76,-0.34667 -0.9333,0 -1.76,0.34667 -0.8266,0.32 -1.4666,0.93333 -0.6134,0.58667 -1.0134,1.41334 -0.3733,0.82666 -0.4533,1.81333 z m -14.7658,7.89333 -4.8,-6.8 -2.6667,2.50667 v 4.29333 h -2.3467 v -19.46666 h 2.3467 v 12.8 l 7.1467,-7.22667 h 2.5866 l -5.5466,5.76 5.8133,8.13333 z m -21.0317,0.26667 q -0.9867,0 -1.84,-0.32 -0.8533,-0.34667 -1.4933,-0.93333 -0.6134,-0.58667 -0.9867,-1.36 -0.3467,-0.8 -0.3467,-1.73334 0,-0.96 0.4267,-1.73333 0.4267,-0.8 1.2,-1.36 0.8,-0.56 1.8667,-0.88 1.0933,-0.32 2.3733,-0.32 1.0133,0 2.0533,0.18667 1.04,0.18666 1.84,0.50666 v -1.12 q 0,-1.70666 -0.96,-2.66666 -0.96,-0.98667 -2.72,-0.98667 -2.1066,0 -4.4266,1.62667 l -0.7734,-1.52 q 2.6934,-1.81334 5.4134,-1.81334 2.7466,0 4.2666,1.46667 1.5467,1.46667 1.5467,4.13333 v 5.68 q 0,0.82667 0.7467,0.85334 v 2.02666 q -0.3734,0.0533 -0.6134,0.08 -0.24,0.0267 -0.5066,0.0267 -0.6934,0 -1.12,-0.4 -0.4,-0.42667 -0.48,-1.01333 l -0.053,-0.98667 q -0.9333,1.25333 -2.3733,1.92 -1.4133,0.64 -3.04,0.64 z m 0.6133,-1.76 q 1.2534,0 2.32,-0.45333 1.0934,-0.48 1.6534,-1.25334 0.5066,-0.50666 0.5066,-1.04 v -2.05333 q -1.7066,-0.66667 -3.5466,-0.66667 -1.76,0 -2.88,0.74667 -1.0934,0.74667 -1.0934,1.94667 0,0.58666 0.2134,1.09333 0.24,0.50667 0.64,0.88 0.4266,0.37333 0.9866,0.58667 0.56,0.21333 1.2,0.21333 z m -7.8354,1.49333 h -2.3466 v -7.78666 q 0,-2.18667 -0.72,-3.22667 -0.6934,-1.04 -2.08,-1.04 -1.44,0 -2.5867,1.04 -1.12,1.01333 -1.6,2.64 v 8.37333 h -2.3467 v -7.78666 q 0,-2.24 -0.6933,-3.25334 -0.6933,-1.01333 -2.08,-1.01333 -1.4133,0 -2.56,1.01333 -1.1467,0.98667 -1.6267,2.64 v 8.4 h -2.3466 v -13.92 h 2.1333 v 2.98667 q 0.8533,-1.54667 2.2133,-2.37333 1.36,-0.85334 3.0667,-0.85334 1.76,0 2.7733,0.96 1.04,0.93334 1.28,2.42667 1.8667,-3.38667 5.3067,-3.38667 1.2,0 2,0.45334 0.8267,0.42666 1.3067,1.22666 0.48,0.77334 0.6933,1.84 0.2133,1.06667 0.2133,2.32 z m -40.9196,3.78667 q 0.3467,0.0533 0.6934,0.08 0.3466,0.0267 0.5333,0.0267 0.32,0 0.56,-0.16 0.2667,-0.13334 0.5067,-0.56 0.2666,-0.42667 0.5866,-1.2 0.32,-0.74667 0.8,-1.97334 l -5.8933,-13.92 h 2.4267 l 4.7466,11.81334 4.32,-11.81334 h 2.24 l -6.7733,17.57334 q -0.3733,0.93333 -1.2533,1.62666 -0.8534,0.72 -2.3734,0.72 -0.24,0 -0.5066,-0.0267 -0.24,-0.0267 -0.6134,-0.10667 z m -9.8445,-3.52 q -1.5734,0 -2.88,-0.56 -1.3067,-0.58667 -2.24,-1.57333 -0.9334,-0.98667 -1.4667,-2.29334 -0.5067,-1.33333 -0.5067,-2.8 0,-1.46666 0.5067,-2.77333 0.5333,-1.30667 1.4667,-2.29333 0.96,-0.98667 2.2666,-1.54667 1.3067,-0.58667 2.88,-0.58667 1.5734,0 2.8534,0.58667 1.3066,0.58667 2.2133,1.57333 0.9067,0.96 1.3867,2.26667 0.5066,1.28 0.5066,2.66667 0,0.29333 -0.027,0.53333 0,0.24 -0.027,0.37333 h -11.5467 q 0.08,1.04 0.48,1.89334 0.4,0.85333 1.04,1.46666 0.64,0.61334 1.44,0.96 0.8267,0.34667 1.7334,0.34667 0.64,0 1.2533,-0.16 0.6133,-0.18667 1.1467,-0.48 0.5333,-0.29333 0.9333,-0.72 0.4267,-0.42667 0.64,-0.96 l 2.0267,0.56 q -0.3467,0.77333 -0.96,1.41333 -0.5867,0.64 -1.3867,1.12 -0.7733,0.45334 -1.7333,0.72 -0.96,0.26667 -2,0.26667 z m 4.7733,-8.16 q -0.08,-0.98667 -0.5067,-1.81333 -0.4,-0.85334 -1.04,-1.44 -0.6133,-0.58667 -1.44,-0.90667 -0.8266,-0.34667 -1.76,-0.34667 -0.9333,0 -1.76,0.34667 -0.8266,0.32 -1.4666,0.93333 -0.6134,0.58667 -1.0134,1.41334 -0.3733,0.82666 -0.4533,1.81333 z m -14.5825,7.89333 h -2.3467 v -7.78666 q 0,-2.16 -0.7466,-3.2 -0.7467,-1.06667 -2.1867,-1.06667 -0.6933,0 -1.3867,0.29333 -0.6933,0.26667 -1.3066,0.74667 -0.5867,0.48 -1.0667,1.14667 -0.4533,0.66666 -0.6933,1.46666 v 8.4 h -2.3467 v -19.46666 h 2.3467 v 8.53333 q 0.8266,-1.52 2.24,-2.37333 1.4133,-0.85334 3.0933,-0.85334 1.2267,0 2.08,0.45334 0.8533,0.45333 1.36,1.22666 0.5067,0.77334 0.72,1.86667 0.24,1.06667 0.24,2.29333 z m -14.255,-0.69333 q -0.2133,0.10667 -0.56,0.26667 -0.3467,0.13333 -0.8,0.29333 -0.4267,0.13333 -0.96,0.21333 -0.5067,0.10667 -1.0667,0.10667 -1.28,0 -2.2133,-0.69333 -0.9333,-0.72 -0.9333,-2.21334 v -9.36 h -1.8934 v -1.84 h 1.8934 v -4.64 h 2.3466 v 4.64 h 3.12 v 1.84 h -3.12 v 8.64 q 0.053,0.77334 0.5067,1.12 0.4533,0.34667 1.0667,0.34667 0.6933,0 1.2533,-0.21333 0.5867,-0.24 0.8,-0.37334 z m -21.8179,0.69333 v -12.08 h -1.8934 v -1.84 h 1.8934 v -0.29333 q 0,-2.58667 1.1466,-4.05333 1.1467,-1.46667 3.12,-1.46667 0.8267,0 1.6267,0.24 0.8,0.21333 1.44,0.61333 l -0.5867,1.73334 q -0.3733,-0.26667 -0.9333,-0.42667 -0.5333,-0.16 -1.0667,-0.16 -1.1733,0 -1.7866,0.88 -0.6134,0.88 -0.6134,2.56 v 0.37333 h 3.7067 v 1.84 h -3.7067 v 12.08 z m -6.8925,0 v -13.92 h 2.3466 v 13.92 z m 0,-16.53333 v -2.93333 h 2.3466 v 2.93333 z m -8.9459,15.84 q -0.2133,0.10667 -0.56,0.26667 -0.3466,0.13333 -0.8,0.29333 -0.4266,0.13333 -0.96,0.21333 -0.5066,0.10667 -1.0666,0.10667 -1.28,0 -2.2134,-0.69333 -0.9333,-0.72 -0.9333,-2.21334 v -9.36 h -1.8933 v -1.84 h 1.8933 v -4.64 h 2.3467 v 4.64 h 3.12 v 1.84 h -3.12 v 8.64 q 0.053,0.77334 0.5066,1.12 0.4534,0.34667 1.0667,0.34667 0.6933,0 1.2533,-0.21333 0.5867,-0.24 0.8,-0.37334 z m -18.3141,0.96 q -0.9867,0 -1.84,-0.32 -0.8534,-0.34667 -1.4934,-0.93333 -0.6133,-0.58667 -0.9866,-1.36 -0.3467,-0.8 -0.3467,-1.73334 0,-0.96 0.4267,-1.73333 0.4266,-0.8 1.2,-1.36 0.8,-0.56 1.8666,-0.88 1.0934,-0.32 2.3734,-0.32 1.0133,0 2.0533,0.18667 1.04,0.18666 1.84,0.50666 v -1.12 q 0,-1.70666 -0.96,-2.66666 -0.96,-0.98667 -2.72,-0.98667 -2.1067,0 -4.4267,1.62667 l -0.7733,-1.52 q 2.6933,-1.81334 5.4133,-1.81334 2.7467,0 4.2667,1.46667 1.5467,1.46667 1.5467,4.13333 v 5.68 q 0,0.82667 0.7466,0.85334 v 2.02666 q -0.3733,0.0533 -0.6133,0.08 -0.24,0.0267 -0.5067,0.0267 -0.6933,0 -1.12,-0.4 -0.4,-0.42667 -0.48,-1.01333 l -0.053,-0.98667 q -0.9333,1.25333 -2.3733,1.92 -1.4134,0.64 -3.04,0.64 z m 0.6133,-1.76 q 1.2533,0 2.32,-0.45333 1.0933,-0.48 1.6533,-1.25334 0.5067,-0.50666 0.5067,-1.04 v -2.05333 q -1.7067,-0.66667 -3.5467,-0.66667 -1.76,0 -2.88,0.74667 -1.0933,0.74667 -1.0933,1.94667 0,0.58666 0.2133,1.09333 0.24,0.50667 0.64,0.88 0.4267,0.37333 0.9867,0.58667 0.56,0.21333 1.2,0.21333 z m -7.8358,1.49333 h -2.3467 v -7.78666 q 0,-2.16 -0.7467,-3.2 -0.7466,-1.06667 -2.1866,-1.06667 -0.6934,0 -1.3867,0.29333 -0.6933,0.26667 -1.3067,0.74667 -0.5866,0.48 -1.0666,1.14667 -0.4534,0.66666 -0.6934,1.46666 v 8.4 h -2.3466 v -19.46666 h 2.3466 v 8.53333 q 0.8267,-1.52 2.24,-2.37333 1.4134,-0.85334 3.0934,-0.85334 1.2266,0 2.08,0.45334 0.8533,0.45333 1.36,1.22666 0.5066,0.77334 0.72,1.86667 0.24,1.06667 0.24,2.29333 z M 1175.95,437.38552 h 2.2667 l 2.5066,6.58666 2.5334,-6.58666 h 2.2666 l -3.28,8.24 3.2534,7.81333 6.4,-16.16 h 2.6133 l -7.92,18.93333 h -2.08 l -3.76,-8.93333 -3.7867,8.93333 h -2.08 l -7.8933,-18.93333 h 2.5867 l 6.4266,16.16 3.2267,-7.81333 z"
           style="font-style:normal;font-variant:normal;font-weight:500;font-stretch:normal;font-size:26.66666794px;font-family:Raleway;-inkscape-font-specification:'Raleway Medium';text-align:end;text-anchor:end;fill:#ffffff"
           id="path1833"
           inkscape:connector-curvature="0" />
      </g>
      <rect
         rx="2.2418792"
         ry="1.7267395"
         y="118.04255"
         x="113.50091"
         height="22.447613"
         width="4.4837584"
         id="rect1620"
         style="opacity:1;fill:#ffffff;fill-opacity:0.98492462;fill-rule:nonzero;stroke:#ff2a2a;stroke-width:0.85620379;stroke-linecap:round;stroke-linejoin:miter;stroke-miterlimit:4;stroke-dasharray:none;stroke-dashoffset:0;stroke-opacity:1;paint-order:stroke fill markers" />
      <circle
         r="2.505343"
         cy="144.69722"
         cx="115.58571"
         id="path1624"
         style="opacity:1;fill:#ffffff;fill-opacity:0.98492462;fill-rule:nonzero;stroke:#ff2a2a;stroke-width:1.4017458;stroke-linecap:round;stroke-linejoin:miter;stroke-miterlimit:4;stroke-dasharray:none;stroke-dashoffset:0;stroke-opacity:1;paint-order:stroke fill markers" />
    </g>
  </g>
</svg>
